<svg xmlns="http://www.w3.org/2000/svg" viewBox="0 0 1344 761" style="fill:#801c32">
  <defs>
    <style>
      .cls-1 {
        fill: rgba(0,0,0,0);
      }
    </style>
  </defs>
  <title>Asset 1</title>
    <g id="Layer_1-2" data-name="Layer 1">
        <path class="cls-1" d="M1,1H1345V762H1ZM205.38,72.34c-7.77-4.79-15.68-3.52-23.49-.54-12.74,4.86-22,13.89-29.84,24.79-11.56,16.12-17.16,34.31-17.71,53.81a94.6,94.6,0,0,0,7.93,39.76c1.53,3.58.82,5.49-2.82,5.92a143.06,143.06,0,0,1-14.76,1c-2.59,0-4.14.83-4.49,3.37-1.39,10.06-2.93,20.11-4,30.22-.83,7.8-3.19,13.87-10.76,18.07-6.81,3.78-12.81,9.17-18.72,14.36-20.5,18-32,41.16-38.73,67.2-2.39,9.23-4.32,18.93-11.54,26.19-2.27,2.28-2.34,4.66-.74,7.88,3.56,7.16,5.79,15,9.56,22,5.19,9.69,10,20.1,17.33,28,12.19,13.1,28.44,20.87,44.91,27.69,7.13,2.95,12.66,7,13.76,15.58,1.3,10.14,3.33,20.19,5,29.66-28.69-14.06-52-34-62.58-66.12a2.59,2.59,0,0,0-.48,1.92c5.48,18.61,10.49,37.38,16.64,55.77,4.06,12.14,10.34,23.31,21.55,31.24-8.36-.28-16.61-1.21-24.87-1.93-10.8-.95-21.08.22-24.58,2.62,16.5,0,20.71,1.94,26.31,6.19,13.07,9.92,25.85,20.22,38.8,30.3,2.13,1.66,2,3.25.91,5.48-5,10.57-6,21.19,1,31.33a53.62,53.62,0,0,0,30.23,21.72c15.69,4.45,31.62,8,47.4,12.12a7.53,7.53,0,0,1,4.46,3.12c4.11,7.9,7.88,16,11.72,23.89-13.29,1-27.08,3.52-40.05,9.24s-15.88,15.73-5.35,26.14a38.36,38.36,0,0,0,13.64,8.42c15.51,5.57,31.54,7.86,48,5.13,11.6-1.92,23.18-4,34.8-5.81a6.35,6.35,0,0,1,4.37,1.48c6.54,5.37,12.59,11.41,19.45,16.34,19.61,14.09,42.28,18.85,65.86,19.89,11.66.52,23.37.09,35.05.09l.3-2.35c-16.92,0-33.6-1.33-47.23-12.41-13-10.58-24.74-22.4-33.05-37.23,13.6-1.73,26.43-3.45,39.29-5,13.05-1.53,24.64-6.82,36.41-13.44l-5.59-.75,0-.85h10.72c.45-4.47.16-4.67-3.44-5.7-4.69-1.34-9.28-3-13.93-4.46-1-.33-2.11-.6-3.19-.83-4.09-.87-8.42-1.14-12.26-2.66-18.48-7.34-35.57-17.31-51.73-28.83-9.95-7.09-19.53-14.72-29.26-22.1,10-1.37,10-1.37,8.37-11.56-.13-.82.11-1.71-.09-2.49q-3.48-13.23-7-26.44c-.83-3.08-2.94-4-6-3.7-7.86.77-15.73,1.64-23.61,2-8.27.33-8.9-.44-10.24-8.32s3.17-15.47,9.68-15.58c3.77-.07,7.55,1,11.38,1.49-.49-12.12-.65-12.22-23.45-16.06,4.81-6.84,8.41-8.63,12.2-6.09.15-1.09.29-2.18.55-4.14l10.36,11.31c-2.28-4.41-5.25-8.28-7.95-12.32C244,488.81,237.37,482,225.88,483a13.43,13.43,0,0,1-5.26-1.06c-2.74-.93-4.81-2.46-3.32-5.86,2.52-5.77,4.23-12.12,7.81-17.13a100.64,100.64,0,0,1,16.64-18c4.88-4.16,11.17-6.65,16.77-10,2.78-1.67,7.08-3.13,7.76-5.52,1.51-5.36,6-10.73,2.46-16-2.87,3.75-5.45,8.43-9.21,11.8-10.53,9.46-22.86,9.28-35.43,4.94-8.38-2.9-14.91-8.49-16.62-17.3-1.13-5.82-.43-12.2.5-18.16,4-25.64,30.63-36.57,49.38-33.14-1.4,7-2.48,14-8.72,18.87a7.13,7.13,0,0,0-2.4,4.45c-.49,4.82-.52,9.69-.76,15.27.84-1.24,1.55-2.87,2.76-4a143.93,143.93,0,0,1,12.13-10.1c7.6-5.37,10.4-5,16.8,1.42,1.58,1.58,3.19,3.13,5.19,5.09,1.64-4.17,2.4-7.91,4.43-10.72s5.33-4.67,8.74-7.5c-1.6-2-2.75-4.63-4.73-5.63-19.5-9.75-30-34.45-26.11-54,.6-3-.08-6.27-.22-9.41-.25-5.7-.53-11.4-.85-18.43l10.68,7c6.14-8.13,17.38-14.27,26.5-16.23,4.39-1,10.07,1.12,13.17-4.09-3.34-.48-6.56-1.07-9.81-1.38-3.91-.38-7.9-1.06-11.74-.63-7.36.81-11,6.41-14.12,13.18l-14.87-10.83c9-9.45,14.64-20.3,15.28-33.25.22-4.34,2-6.55,5.43-8.49,6.77-3.83,14.05-5.25,21.71-5.31,7.92-.07,14.13-4.79,14.86-12.28.94-9.61,1.08-19.3,1.56-29C320,192.23,316.53,202,310.38,211c-4.68,6.92-17.16,7.94-22.88,3.14-9.91-8.31-14.56-19.09-15.67-31.78-1.77-20.09,7.68-35.57,20.61-49.3a58.59,58.59,0,0,1,27.73-16.17c5.73-1.55,11.52-2.91,17.28-4.36-12.95-.43-25.83-.14-38.69-.51-12.07-.35-16.79-10-11.82-19.78a48.5,48.5,0,0,1,9.43-13.1C307,69,319.64,61.5,333.25,56c10.5-4.23,21.39-7.47,32.28-11.21l-17.08,2.32c-20.59,2.8-40.14,9.13-58.88,17.92-29.19,13.69-54.2,33.38-77.27,55.55-11.34,10.9-21.76,22.77-32.46,34.33-4.69,5.07-9.05,10.47-13.54,15.73-1.93,2.25-3.1,3.51-5.76,0-13.11-17.23-14.75-36.13-8.47-56C159.71,90.46,179.89,71.88,205.38,72.34Zm1014.19,415.2c1.37-11.78,2.82-22.76,3.83-33.79.45-4.9,3.26-7.52,7-9.89,11.48-7.25,22.74-14.88,34.39-21.85,6.32-3.78,12.06-9.67,20.54-8.12,5,.9,9.89,2,14.83,3l7.55,1.53.53-1.86-21.87-7.46c.8-1.72,1.41-3.87,2.64-5.55,9.22-12.53,15.45-26.55,21-41,1.15-3,.39-4.36-1.56-6.41-2.84-3-6-6.18-7.48-9.9-4.44-11.05-7.89-22.5-12.19-33.61-6.73-17.43-15.28-34-29-46.94-9.41-8.89-20.09-16.41-30-24.76a14.07,14.07,0,0,1-4.57-6.62,112.58,112.58,0,0,1-2.33-15c-.91-7.63-1.65-15.27-2.5-23.21h-8.13c-10.19,0-11.94-3-9.72-12.82a208.16,208.16,0,0,0,5.11-33,79.28,79.28,0,0,0-6.81-37c-7.67-17.56-19.17-31.85-36.31-40.89-7.69-4.06-15.91-5.13-24.17-1.4,5.39,1.46,10.77,2.35,15.7,4.36,15.72,6.42,26.33,18.16,33,33.51,7.66,17.48,8.57,34.84-1.92,51.65-2,3.17-4.54,6-7.26,9.51-2.72-3.3-4.48-5.47-6.28-7.6-11.38-13.45-22.35-27.27-34.29-40.21-8.5-9.22-18.18-17.38-27.56-25.76a206.32,206.32,0,0,0-41.13-28.48,229.9,229.9,0,0,0-62.79-21.79c-8-1.59-16.1-2.29-24.16-3.4,30.78,10.72,38.83,12.7,60.3,28,8.69,6.19,16.38,13.36,20.74,23.35,3.36,7.72-1.21,15.36-9.57,15.87-14.19.86-28.4,1.4-42.6,2-1.63.07-3.25,0-4.88,0,26.62,4.7,41.75,10.71,60.94,32A49.15,49.15,0,0,1,1081.07,172c1.68,15.5-3.74,28.3-15.19,38.91-10.49,9.73-19.76,7.32-26.62-2.59-4.12-6-5.77-13.63-8-19.09-.69,2.66-1.63,7.07-3,11.35-3.21,10,1.37,17.3,11.74,19.38,6.52,1.31,12.84,3.67,19.25,5.55,3.66,1.08,5.08,3.25,5,7.3a117.74,117.74,0,0,0,1,18.29c.45,3.46,2.13,6.76,3.45,10.7,1.85-10.32,3.59-19.56,5.11-28.84.48-3,1.69-4.24,4.84-4.15,6.91.19,13.84.06,20.76.06-11.28-2.52-21.81-9.73-35.09-4.29,3.44-4.78,5.88-8.47,8.62-11.91,6-7.49,12.43-14.79,22.08-17.19,9.3-2.32,19.71-.3,22.13,12.52.72,3.83,1.81,7.6,2.7,11.41,3.26,14-.67,24.86-12.36,32.89-8.36,5.73-17,11.05-24.66,16,0,2.38.72,4.85-.16,6.44-1.61,2.91-4,4.29-7.76,2a72.84,72.84,0,0,0-43.82-10.49c-2.92.2-5.75,1.77-8.62,2.71,7.14,4.05,12.79,9,22,6.29,10.51-3.1,19.78,3.25,28.81,8.51-7.41,8-7.41,8-11.92,5.19,1.87,5.57,1.86,5.56-2.31,10.74a74,74,0,0,0-4.82,6.23c-7,10.79-14.17,21.47-20.63,32.56-3.21,5.52-5,11.85-7.46,17.82l1.37,1.15,14.32-15.14c.49,1.7,1.3,3.13,1.24,4.52-.46,11.22-1.3,22.42-1.57,33.64-.1,4.12,1,8.26,1.62,12.39,6.1-13,15.79-24.43,26.38-29.85,13.45-6.88,14.2-6.53,19.76,8.07,1.69,4.41,2.85,9.44,5.79,12.86,4,4.69,9.52,8.12,14.39,12.09l-1.14,1.37c-2.25-4-4.89-7.87-6.65-12.1-3.43-8.24-8.15-16.09-7.87-25.57.1-3.3,1.22-5.3,4.27-5.35,4.56-.07,9.3-.2,13.66.9,25.26,6.35,37.74,28.8,34.44,53.38-1.48,11.07-8.49,17.47-18.8,20.23-11.34,3-23.25-1.23-29-9.89-2.09-3.14-4-6.41-6-9.62,2.06,8.94,2.76,18.34,12.17,23.79,6,3.47,11,8.55,16.87,12.24,8.89,5.58,12.3,14.43,15.27,23.62,2.33,7.19.15,12.37-5.27,13-4.42.54-8.93.39-13.29,1.18-3.09.56-6.76,1.42-8.82,3.49-4,4-7.07,9-10.53,13.57,6-1.48,10.87,1.36,14.65,8.6-15.49,1.5-22.59,7.08-20.94,15.47,2-.84,3.85-1.79,5.83-2.46,4.35-1.48,8.64-2.17,11.74,2.42s3.12,14.21.1,17.15c-1.12,1.09-2.67,2.54-4,2.5-8.74-.25-17.51-.54-26.19-1.51-4-.44-6.71.13-8.46,3.84a71.71,71.71,0,0,0-7.17,33.84c.16,3.75-.37,9,7.12,9.42-35.37,26.95-70.48,51.34-114.57,62.87,12,8.68,25.57,10,38.35,12.74,13.34,2.9,27,4.09,41.1,6.1-9.34,16.11-20.25,31.19-36,42.1-11.08,7.68-23,11.67-36.18,4.88a7.45,7.45,0,0,0-2.69-.29c.27,6.44,6.16,7.86,9.7,8.3,7.94,1,16.23.46,24.23-.59,17.49-2.31,34.33-7.22,49.51-16.43,11.31-6.87,22.8-13.71,30.82-25.15,16.89,6.47,34.79,8.66,52.77,9.54a118.12,118.12,0,0,0,27-2.28c9.69-1.81,18.85-5.41,25.74-13.25,7.32-8.33,7.34-17.23-1-21.75-16.44-8.92-34.23-12.88-52.29-13.06,3.45-7,7.06-14.51,10.8-21.92a4.64,4.64,0,0,1,2.43-2.13c10.46-3.2,20.82-6.85,31.45-9.27,16.23-3.69,32.92-5.7,46.31-17.1,7.57-6.44,13.6-13.77,12.71-24.24-.49-5.75-2.73-11.35-4.32-17.58a22,22,0,0,1,2.32-2.13q19.47-14.16,39-28.27c10.14-7.33,20.47-14.15,34.12-10.13-9.48-4.29-19.44-3.76-29.24-3.27s-19.34,2-29.06,3c4.73-5.49,10.12-10,13.19-15.71a167.36,167.36,0,0,0,12.08-28.78c4.06-13,6.83-26.36,10.16-39.57C1269.55,456.19,1243.84,470.76,1219.57,487.54ZM457,481.87c6.64,0,12.07-.11,17.5.06A7.11,7.11,0,0,1,479,483.4c13.35,13,26,26.59,34.35,43.67,3.16,6.47,7.41,13,15.25,14.34,5.07.85,10.47-.36,15.73-.52,3.07-.1,4.36-1.55,4.63-4.58.29-3.29-1.69-5.08-4.19-5-5.2.23-7.29-2.74-9.85-6.56-10.18-15.18-20.81-30.07-31.44-45.3,4.84-2.41,9-4.28,13-6.51,18.14-10.2,22.78-29.64,8.42-45-9.48-10.14-22.85-14.53-36.57-14.6-21.87-.11-43.74,1.17-65.61,1.89-.21,0-.41.38-1.59,1.56,3,2.21,5.8,4.32,8.66,6.38,3.27,2.35,5.93,5.15,6.34,9.35a134.75,134.75,0,0,1,1,14.31q-.31,35.64-1,71.3c-.16,8.5-1.51,10-9.36,12.71a18.62,18.62,0,0,0-4.12,1.54c-3,2-3.21,6.26-.12,7.06a50.66,50.66,0,0,0,14.37,1.78c6.85-.25,13.64-1.86,20.5-2.24,4.39-.25,8.86.57,13.28,1.08,2.66.31,5-.52,4.93-3.14-.06-1.66-2.27-4.59-3.56-4.61-5.25-.08-10.51.82-15.79,1.17a19.54,19.54,0,0,1-4.4-.73l.3-1.6c1.29-.1,2.6-.15,3.88-.32,3.11-.41,4-2.26,3.77-5.26C458.77,510.94,457.92,496.29,457,481.87ZM422.44,241.49c-.82,1.69-1.66,3.12-2.23,4.65-2.68,7.1-3.91,8-11.51,8-7.16,0-14.33.2-21.48-.12a8.34,8.34,0,0,1-5.47-2.79c-3.92-4.91-5.48-5.11-8.41.51-2.63,5.07-4.64,10.47-6.92,15.73a228.59,228.59,0,0,1,4.6-27.94c.61-2.62,3.07-4.81,4.68-7.2l.78.57c.5-7.87,1-15.74,1.52-23.78,6.34-.44,12.24-1.06,18.15-1.19,9-.2,18-.25,27,0a52.37,52.37,0,0,1,12,2c6,1.64,6.66,3.34,5.46,9.37-.34,1.69-.09,4.25,1,5.27a6,6,0,0,0,5.36,1,7.68,7.68,0,0,0,3.72-4.8c1.61-7.71,2.74-15.52,4-22.91h-114c-2.07,6.77-2.13,7.15,4,8.17s8.69,4.48,9.4,10a80.37,80.37,0,0,1,1,10.8q-.34,36.39-1,72.78a43.74,43.74,0,0,1-1.05,8.29c-.72,3.39-2.22,5.95-6.36,6.31-2.84.26-5.59,1.49-8.23,2.24-.35,2.68-.65,5-1,7.37,9.32,0,18.49.37,27.61-.07,18.53-.89,37.38,3.15,56.21-4.11l-4.05,5.75,39.52-2.35c-.29-11.43.34-22.65,7.17-32.48-5.29-1.2-8.75-.76-11.19,4.85-3.35,7.7-10.08,12.59-18.24,14.35-17.64,3.82-35.52,2.89-53.3,1.05-1.62-.17-4-3.5-4.15-5.5-.73-10.74-.95-21.51-1.13-32.28,0-2.68.73-5.36,1.15-8.21,5.08,0,9.58-.22,14.05.06,7.19.43,14.39,1,21.55,1.88,5.58.68,7.91,4.38,7.42,9.78-.37,3.94,1.36,5.45,5.09,5.3,1.8-.08,3.6,0,5.55,0-3.11-13.31-6.49-26.18-.51-39.28ZM702,314.62c-3.35-.78-6.57-1.6-6.71-5.7-.47-13.41-1-26.82-1.24-40.24,0-.93,1.63-2.55,2.7-2.74a173.41,173.41,0,0,1,19.83-3,13.81,13.81,0,0,1,14.5,12.59c.73,7.22,1.4,14.55.9,21.75-.51,7.39-.11,16.22-11.22,17.08-.5,0-1.41,1.59-1.25,2.21.84,3.36,1,7.42,6.51,6.34,2.57-.5,5.31-.09,8-.09h28.3c-1.84-4.25-2.07-8.5-7.41-8.88-2.63-.19-3-2.3-3.05-4.73-.22-12.93-.36-25.88-1-38.79-.63-12.61-6.33-19.62-20.7-20.41-13.64-.75-26.29,2.68-38.81,7.8-3-6.16-7.92-10.33-14.44-10.48A82.83,82.83,0,0,0,656,249.9c-6.4,1.54-12.46,4.52-18.93,7-.07-1.23-.08-2.05-.17-2.86-.67-6.31-2.61-10.42-11.14-6.26A55.9,55.9,0,0,1,612.81,252c-4.8,1-9.81,6.2-10.18,11.61,13.08.94,14,1.76,14.47,15.31.24,6.53.06,13.08,0,19.62-.06,11.07-2.58,14.2-13.27,16.61a9.67,9.67,0,0,0-1.42.52c-.37,2.62-.69,4.85-1.08,7.62h50.58c-1.62-.87-2.93-1.44-4.09-2.22-5.1-3.44-11.1-6.07-11-13.78q.2-18.24,0-36.49c0-2.78.85-4.26,3.44-5.06,5-1.54,9.82-3.83,14.9-4.71,12-2.07,19.55,3.15,19,15.87-.24,5.88,0,11.78,0,18.91l5.76-6.1-6.31,23.45,7.28-1.87c.22,1.21.43,2.4.72,4h-14.9c2.45,3.19,4,7.13,5.83,7.26,9.25.64,18.58.3,27.91.3C701,319.93,701.45,317.41,702,314.62Zm37.74,197.56a103.41,103.41,0,0,1,3.65-49.5c-11.2-2.47-12.67,5.92-16,12.6-1.35-9-1.56-9.61-9.84-11a80.91,80.91,0,0,0-16.75-1c-18.48.67-34.38,7.41-45.55,22.49-7.54,10.18-8.39,21.76-3.33,33.62,5.74,13.44,24.31,23.32,39.79,21.59,8.41-.94,16.72-2.72,26.13-4.3-1.87,8.7-3.1,17.6-5.79,26-2.53,7.89-8.82,12.37-17.4,11.37-7.59-.88-15.07-2.73-22.57-4.32a9.93,9.93,0,0,0-10.94,6c-2,5.39-1.22,7.45,4.64,9.91a33.53,33.53,0,0,0,9.47,2.16c13.42,1.4,25.72-1.87,37.29-8.77,11.17-6.68,20-15.09,22.29-28.47,1.14-6.61,1.16-13.43,2.4-20,1-5.1,1-9.73-1.68-14.27-1.93-3.24-3.65-6.61-5.47-9.92l.77-.57ZM894.89,314.32c-2.75-.4-5.65-.74-8.53-1.24-4.23-.74-6.72-2.87-6.53-7.62.45-11.43,1-22.88.88-34.31-.06-4.49,1.76-6.55,5.49-7.18,7.41-1.25,14.86-2.42,22.34-3,6.07-.47,11.14,3.39,11.39,9.19.51,11.51.34,23.07.07,34.6-.12,5-3.29,7.56-8.37,8.49-7.15,1.3-7.1,1.59-6,9.11h46.81c1.09-7.85,1-8.28-6.55-9.1-4.14-.45-5.74-2.19-5-6,1.84-9,.05-17.51-2.94-26-.85-2.41-.29-5.35-.21-8.05.12-4.06,1.26-8.3.43-12.14-1.71-7.88-10.33-13.36-18.87-14-13.4-1-25.65,2.79-37.73,8.25A21.46,21.46,0,0,1,880,252c-1.86-6.44-4.31-7.67-10.21-4.74-3.81,1.89-7.78,3.67-11.16,6.2-3.2,2.4-6.36,5.35-6.35,8.92,3.22,1.56,6.42,2.1,7.59,3.94,1.36,2.12,1.29,5.38,1.24,8.14-.17,9.44-.52,18.87-1,28.3-.35,7.75-.54,8.79-8.13,9.65-6.14.7-7,3.19-5.76,8.13a10.79,10.79,0,0,0,.5,1.18h48.17ZM593.77,462.72c-4.92.48-9.88.7-14.74,1.51a55.12,55.12,0,0,0-9.34,2.91c-12.7,4.57-24.71,16.58-25.5,31.56-.81,15.57,5.68,26.32,20.71,34.56,10.82,5.94,22.53,5.75,34.38,5.69,18.92-.11,39-15.6,40.89-33.87,1.32-12.49-2.21-22.56-11.33-30.24C618.93,466.48,607.23,461.82,593.77,462.72Zm210.5,8.73c-.21,4.42,0,4.22,4.08,7.63a8.15,8.15,0,0,1,2.66,5.46c.24,11.73.12,23.48.12,34.84-5.88,2-10.27,4-14.87,5A64.21,64.21,0,0,1,780.65,526c-6.07-.24-10.94-8.27-10.7-17.64.34-13.55,1.34-27.09,1.87-40.63.23-5.77-2-7.13-7.26-4.65-6.52,3-12.92,6.34-19.15,9.41v9.15l5.42-.91c.47,3.23,1.27,6.12,1.22,9-.13,9.11-1.15,18.24-.77,27.31.48,11.33,7.47,21.5,20.62,22,8.72.34,16.72-1.94,24.77-4.53,4.61-1.48,9.16-3.18,13.74-4.79a69.32,69.32,0,0,1,2.29,7.43c.87,4.68,3.69,5.75,8.11,5.85,9.11.21,16.34-3.67,23.32-9.18-5.15-9.26-11.16-3.21-16.24-.79,1.06-2.82,2.72-5.28,2.8-7.79.53-15.63.64-31.28,1-46.92.15-6.3.63-12.6.95-18.85Zm-205.63-165c0-.59,0-1.17.05-1.76-3.21,0-7-1.12-9.53.21-8,4.25-16.18,6.77-25.39,6.31-12.51-.63-25.4-8.68-21.47-25.35,9.44,0,18.73.2,28-.05,9.47-.26,18.93-.95,28.88-1.48-.55-4.15-1.2-7-1.28-9.95-.22-8-4.31-14.22-9.88-19.08-10.88-9.49-24.65-10.23-37.5-7.57-24.38,5-34.71,33.86-26.5,54.79,7,17.73,25.88,23,43,19.73A64.62,64.62,0,0,0,598.64,306.45ZM925.12,499.57c-.48-3.44-1.09-6.17-1.21-8.92-.45-10.21-8.68-20.9-18.37-24.58-7.63-2.9-15.42-3-23.35-3-8.33,0-15.26,3.23-21.32,8.71-8.76,7.93-13,18.18-13.58,29.62-.68,14.51,4.93,28.38,20.52,34.85,7.07,2.93,14.34,3.32,21.59,2.47a57.2,57.2,0,0,0,35.31-17.54c-3.36-.65-7.16-1.54-9.73-.16-8.51,4.58-17.31,7.13-26.93,6-13.08-1.48-23.5-10-19.43-26.13C887.27,502.38,905.93,502.92,925.12,499.57ZM842.75,306.48l-.09-1.71c-3.23,0-7-1.12-9.59.21-8.21,4.31-16.56,6.86-25.91,6.19-12.8-.92-24.77-9.27-20.6-26.18,18.75,1.34,37.54,2,56.57-1.48-.47-3.26-1.19-6-1.2-8.74,0-8-4-14.51-9.6-19.25-11.27-9.62-25.06-10.06-38.78-7.43-17.17,3.29-28.44,21.22-28.3,39.71.19,23.8,17,36.28,38.55,35.21C818.88,322.25,831.46,315.92,842.75,306.48ZM973.16,256v20.11c0,9,.32,18.07-.17,27.07-.29,5.14-2.85,9.34-8.73,10.38a64.94,64.94,0,0,0-6.82,1.92V323h49c.86-7.49.82-7.3-6.35-9-3.34-.78-7.19-1.45-7.29-6.46-.16-8.26-.76-16.52-.92-24.78-.17-8.76,0-17.53,0-26.72h14.84l7.53-16.19H991c1.39-9.12,2.71-17.76,4.1-26.9l-4,2.68c-2.68,1.8-4.25,7.46-8.91,2.57-.24-.25-1-.1-1.47,0-3,.47-6.07,1-8.81,1.43v20.3l-7.1.38L956.07,256ZM496.1,218.24c.43-4.4-.39-6.3-4.71-4.36-2.8,1.25-5.93,1.75-8.93,2.53-5.32,1.37-10.13,3.08-8.43,10.28.19.77-.47,1.75-.79,2.83a13.38,13.38,0,0,0,2.17.32c3.27-.12,6.56,0,7.51,3.91a33,33,0,0,1,1.14,9.24c-.86,20-1.79,39.92-3,59.86-.32,5.08-2.39,9.53-8.5,10.53a67.22,67.22,0,0,0-8.2,2.36v6.74H516.7c.37-7.2.29-6.88-6.39-8.55-2.66-.67-5.78-2.59-7.08-4.87-1.43-2.49-1.38-6.05-1.3-9.13q.82-32.28,2-64.55c.16-4.21,1.21-8.4,1.86-12.6s1.29-8.25,2.07-13.19Z" transform="translate(-1 -1)"/>
        <path d="M205.38,72.34c-25.49-.46-45.67,18.12-53.31,42.31-6.28,19.88-4.64,38.78,8.47,56,2.66,3.49,3.83,2.23,5.76,0,4.49-5.26,8.85-10.66,13.54-15.73,10.7-11.56,21.12-23.43,32.46-34.33C235.37,98.41,260.38,78.72,289.57,65c18.74-8.79,38.29-15.12,58.88-17.92l17.08-2.32c-10.89,3.74-21.78,7-32.28,11.21C319.64,61.5,307,69,296.37,79.17a48.5,48.5,0,0,0-9.43,13.1c-5,9.77-.25,19.43,11.82,19.78,12.86.37,25.74.08,38.69.51-5.76,1.45-11.55,2.81-17.28,4.36a58.59,58.59,0,0,0-27.73,16.17c-12.93,13.73-22.38,29.21-20.61,49.3,1.11,12.69,5.76,23.47,15.67,31.78,5.72,4.8,18.2,3.78,22.88-3.14,6.15-9.08,9.61-18.8,11.89-29.4-.48,9.65-.62,19.34-1.56,29-.73,7.49-6.94,12.21-14.86,12.28-7.66.06-14.94,1.48-21.71,5.31-3.43,1.94-5.21,4.15-5.43,8.49-.64,13-6.31,23.8-15.28,33.25l14.87,10.83c3.15-6.77,6.76-12.37,14.12-13.18,3.84-.43,7.83.25,11.74.63,3.25.31,6.47.9,9.81,1.38-3.1,5.21-8.78,3.14-13.17,4.09-9.12,2-20.36,8.1-26.5,16.23l-10.68-7c.32,7,.6,12.73.85,18.43.14,3.14.82,6.41.22,9.41-3.92,19.53,6.61,44.23,26.11,54,2,1,3.13,3.66,4.73,5.63-3.41,2.83-6.71,4.7-8.74,7.5s-2.79,6.55-4.43,10.72c-2-2-3.61-3.51-5.19-5.09-6.4-6.39-9.2-6.79-16.8-1.42a143.93,143.93,0,0,0-12.13,10.1c-1.21,1.08-1.92,2.71-2.76,4,.24-5.58.27-10.45.76-15.27a7.13,7.13,0,0,1,2.4-4.45c6.24-4.89,7.32-11.85,8.72-18.87C238.61,354.08,212,365,208,390.65c-.93,6-1.63,12.34-.5,18.16,1.71,8.81,8.24,14.4,16.62,17.3,12.57,4.34,24.9,4.52,35.43-4.94,3.76-3.37,6.34-8.05,9.21-11.8,3.57,5.31-.95,10.68-2.46,16-.68,2.39-5,3.85-7.76,5.52-5.6,3.35-11.89,5.84-16.77,10a100.64,100.64,0,0,0-16.64,18c-3.58,5-5.29,11.36-7.81,17.13-1.49,3.4.58,4.93,3.32,5.86a13.43,13.43,0,0,0,5.26,1.06c11.49-1,18.1,5.84,23.81,14.38,2.7,4,5.67,7.91,7.95,12.32l-10.36-11.31c-.26,2-.4,3.05-.54,4.14-3.8-2.54-7.4-.75-12.21,6.09,22.8,3.84,23,3.94,23.45,16.06-3.83-.54-7.61-1.56-11.38-1.49-6.51.11-11,7.71-9.68,15.58s2,8.65,10.24,8.32c7.88-.32,15.75-1.19,23.61-2,3.08-.3,5.19.62,6,3.7q3.57,13.22,7,26.44c.2.78,0,1.67.09,2.49,1.65,10.19,1.66,10.19-8.37,11.56,9.73,7.38,19.31,15,29.26,22.1,16.16,11.52,33.25,21.49,51.73,28.83,3.84,1.52,8.17,1.79,12.26,2.66,1.08.23,2.15.5,3.19.83,4.65,1.49,9.24,3.12,13.93,4.46,3.6,1,3.89,1.23,3.44,5.7H378.65l0,.85,5.59.75c-11.77,6.62-23.36,11.91-36.41,13.44-12.86,1.51-25.69,3.23-39.29,5,8.31,14.83,20,26.65,33.05,37.23,13.63,11.08,30.31,12.38,47.23,12.41l-.3,2.35c-11.68,0-23.39.43-35.05-.09-23.58-1-46.25-5.8-65.86-19.89-6.86-4.93-12.91-11-19.45-16.34a6.35,6.35,0,0,0-4.37-1.48c-11.62,1.8-23.2,3.89-34.8,5.81-16.47,2.73-32.5.44-48-5.13a38.36,38.36,0,0,1-13.64-8.42c-10.53-10.41-7.56-20.44,5.35-26.14s26.76-8.26,40.05-9.24c-3.84-7.92-7.61-16-11.72-23.89a7.53,7.53,0,0,0-4.46-3.12c-15.78-4.11-31.71-7.67-47.4-12.12a53.62,53.62,0,0,1-30.23-21.72c-6.94-10.14-6-20.76-1-31.33,1.06-2.23,1.22-3.82-.91-5.48-13-10.08-25.73-20.38-38.8-30.3-5.6-4.25-9.81-6.22-26.31-6.19,3.5-2.4,13.78-3.57,24.58-2.62,8.26.72,16.51,1.65,24.87,1.93C90.14,502.17,83.86,491,79.8,478.86c-6.15-18.39-11.16-37.16-16.64-55.77a2.59,2.59,0,0,1,.48-1.92c10.57,32.13,33.89,52.06,62.58,66.12-1.62-9.47-3.65-19.52-5-29.66-1.1-8.58-6.63-12.63-13.76-15.58C91,435.23,74.79,427.46,62.6,414.36c-7.34-7.89-12.14-18.3-17.33-28-3.77-7-6-14.86-9.56-22-1.6-3.22-1.53-5.6.74-7.88,7.22-7.26,9.15-17,11.54-26.19,6.76-26,18.23-49.22,38.73-67.2,5.91-5.19,11.91-10.58,18.72-14.36,7.57-4.2,9.93-10.27,10.76-18.07,1.07-10.11,2.61-20.16,4-30.22.35-2.54,1.9-3.33,4.49-3.37a143.06,143.06,0,0,0,14.76-1c3.64-.43,4.35-2.34,2.82-5.92a94.6,94.6,0,0,1-7.93-39.76c.55-19.5,6.15-37.69,17.71-53.81,7.82-10.9,17.1-19.93,29.84-24.79C189.7,68.82,197.61,67.55,205.38,72.34ZM90.25,379.74c6.17-4,12.28-7.71,18.19-11.76,2.86-2,5.1-4.3,4.76-8.56-1.23-15.29-2.32-30.6-3-45.93-.3-7.25.5-14.54.91-21.81.16-2.95.89-5.88.81-8.81-.06-2.3-.2-5.46-1.64-6.71-4.28-3.75-13.45-2.65-17.6,1.42-10.47,10.25-16.67,22.91-21,36.7-4.22,13.34-6,26.56-3.14,40.62,3.09,15.16,8.65,28.92,19.12,40.2,6.5,7,14.23,12.89,21.4,19.27l1.31-1a37.69,37.69,0,0,0-1.21-6.14c-2.47-6.57-5.26-13-7.73-19.59C99.48,382.39,95.81,379.81,90.25,379.74Zm147.81-112c.57,21.57-5.21,29.82-13.33,42.26-4.08,6.23-9.77,10.35-18.1,10-6.91-.3-11.84-4.3-17.39-7.36s-11.12-4.25-16.74-.83c-4.46,2.72-4.76,7.43-4.64,12.12,0,2.17-.54,4.51.11,6.46,1.72,5.17,3,10.89,6.16,15.09,7.27,9.61,17.94,7.95,28,6,7.73-1.5,14.44-5.26,18.75-12.41.61-1,2.86-2.07,3.62-1.68,1.14.58,1.86,2.35,2.31,3.76.29.9-.25,2.05-.38,2.9.58.46.81.76,1.1.84,9.69,2.73,19.26.82,28.57-1.6,2.35-.61,4.69-4.41,5.43-7.17.8-2.94,0-6.45-.62-9.61q-4.25-22.1-8.81-44.14c-.64-3.06-.93-6.95-2.92-8.81C246.27,270.87,242,269.69,238.06,267.75Zm-6.91,11.47c-.15-10.78-4.19-16.4-13.62-19.5A94,94,0,0,0,207.2,257c-8-1.67-18.15,3.86-20,11.6-2.86,11.79-2.11,23.53,3.76,34.38,5.22,9.67,15.87,11.88,25.07,5.79C227,301.51,229.54,290.15,231.15,279.22Zm35.08,381.23c-.17-.57-.34-1.15-.5-1.73a49.44,49.44,0,0,0-5.43-1.82c-11.32-2.39-22.76-4.32-34-7.13-10.52-2.65-20.72-2.72-30.87,1.11-8.18,3.08-10.06,8.86-5.32,16,5.19,7.8,13.3,9.58,21.72,10.19,11.83.86,23.18-1.81,34-6.39C252.83,667.7,259.44,663.89,266.23,660.45Zm14.64-436.14.67-1.53c-3-4.4-5.9-8.92-9.15-13.16-5.07-6.63-11-12.12-19.95-12.8-14.16-1.08-20.6,3.12-21.66,18-.9,12.62,5.28,22.73,10.67,33.18.6,1.15,2,1.86,3.84,3.42-1.15-10.51,2.36-18.47,10-23.72S271.82,222.26,280.87,224.31Zm-159.69,327c-2.6,8.69-2.07,16.94,3.06,24.41,6,8.74,14.68,14,24.86,16.28,8.26,1.82,16.76,2.53,25.15,3.74-8.79-8.33-17.57-15.41-26.33-22.54S130.22,558.73,121.18,551.33ZM259.9,266.48a13.06,13.06,0,0,0,1.72-1.48c5.64-9.06,7.17-19.47,9.19-29.63.28-1.42-3.21-4.62-5.48-5.33-8.24-2.56-20.89,13.91-16.62,22.1C251.45,257.37,256,261.63,259.9,266.48Zm1.66,91.85-7.87,23.11,31.13-10.63C278.61,361.79,268.56,363,261.56,358.33Z" transform="translate(-1 -1)"/>
        <path d="M1219.57,487.54c24.27-16.78,50-31.35,60.35-61.3-3.33,13.21-6.1,26.59-10.16,39.57a167.36,167.36,0,0,1-12.08,28.78c-3.07,5.73-8.46,10.22-13.19,15.71,9.72-1.05,19.37-2.55,29.06-3s19.76-1,29.24,3.27c-13.65-4-24,2.8-34.12,10.13q-19.51,14.1-39,28.27a22,22,0,0,0-2.32,2.13c1.59,6.23,3.83,11.83,4.32,17.58.89,10.47-5.14,17.8-12.71,24.24-13.39,11.4-30.08,13.41-46.31,17.1-10.63,2.42-21,6.07-31.45,9.27a4.64,4.64,0,0,0-2.43,2.13c-3.74,7.41-7.35,14.88-10.8,21.92,18.06.18,35.85,4.14,52.29,13.06,8.32,4.52,8.3,13.42,1,21.75-6.89,7.84-16,11.44-25.74,13.25a118.12,118.12,0,0,1-27,2.28c-18-.88-35.88-3.07-52.77-9.54-8,11.44-19.51,18.28-30.82,25.15-15.18,9.21-32,14.12-49.51,16.43-8,1-16.29,1.58-24.23.59-3.54-.44-9.43-1.86-9.7-8.3a7.45,7.45,0,0,1,2.69.29c13.21,6.79,25.1,2.8,36.18-4.88,15.71-10.91,26.62-26,36-42.1-14-2-27.76-3.2-41.1-6.1-12.78-2.77-26.37-4.06-38.35-12.74,44.09-11.53,79.2-35.92,114.57-62.87-7.49-.47-7-5.67-7.12-9.42a71.71,71.71,0,0,1,7.17-33.84c1.75-3.71,4.44-4.28,8.46-3.84,8.68,1,17.45,1.26,26.19,1.51,1.32,0,2.87-1.41,4-2.5,3-2.94,2.91-12.69-.1-17.15s-7.39-3.9-11.74-2.42c-2,.67-3.87,1.62-5.83,2.46-1.65-8.39,5.45-14,20.94-15.47-3.78-7.24-8.69-10.08-14.65-8.6,3.46-4.58,6.52-9.55,10.53-13.57,2.06-2.07,5.73-2.93,8.82-3.49,4.36-.79,8.87-.64,13.29-1.18,5.42-.67,7.6-5.85,5.27-13-3-9.19-6.38-18-15.27-23.62-5.87-3.69-10.9-8.77-16.87-12.24-9.41-5.45-10.11-14.85-12.17-23.79,2,3.21,3.87,6.48,6,9.62,5.79,8.66,17.7,12.93,29,9.89,10.31-2.76,17.32-9.16,18.8-20.23,3.3-24.58-9.18-47-34.44-53.38-4.36-1.1-9.1-1-13.66-.9-3,.05-4.17,2.05-4.27,5.35-.28,9.48,4.44,17.33,7.87,25.57,1.76,4.23,4.4,8.08,6.65,12.1l1.14-1.37c-4.87-4-10.36-7.4-14.39-12.09-2.94-3.42-4.1-8.45-5.79-12.86-5.56-14.6-6.31-14.95-19.76-8.07-10.59,5.42-20.28,16.81-26.38,29.85-.58-4.13-1.72-8.27-1.62-12.39.27-11.22,1.11-22.42,1.57-33.64.06-1.39-.75-2.82-1.24-4.52l-14.32,15.14-1.37-1.15c2.44-6,4.25-12.3,7.46-17.82,6.46-11.09,13.65-21.77,20.63-32.56a74,74,0,0,1,4.82-6.23c4.17-5.18,4.18-5.17,2.31-10.74,4.51,2.81,4.51,2.81,11.92-5.19-9-5.26-18.3-11.61-28.81-8.51-9.17,2.71-14.82-2.24-22-6.29,2.87-.94,5.7-2.51,8.62-2.71a72.84,72.84,0,0,1,43.82,10.49c3.78,2.3,6.15.92,7.76-2,.88-1.59.16-4.06.16-6.44,7.66-5,16.3-10.28,24.66-16,11.69-8,15.62-18.88,12.36-32.89-.89-3.81-2-7.58-2.7-11.41-2.42-12.82-12.83-14.84-22.13-12.52-9.65,2.4-16.1,9.7-22.08,17.19-2.74,3.44-5.18,7.13-8.62,11.91,13.28-5.44,23.81,1.77,35.09,4.29-6.92,0-13.85.13-20.76-.06-3.15-.09-4.36,1.16-4.84,4.15-1.52,9.28-3.26,18.52-5.11,28.84-1.32-3.94-3-7.24-3.45-10.7a117.74,117.74,0,0,1-1-18.29c.11-4.05-1.31-6.22-5-7.3-6.41-1.88-12.73-4.24-19.25-5.55-10.37-2.08-15-9.33-11.74-19.38,1.37-4.28,2.31-8.69,3-11.35,2.18,5.46,3.83,13.13,8,19.09,6.86,9.91,16.13,12.32,26.62,2.59,11.45-10.61,16.87-23.41,15.19-38.91a49.15,49.15,0,0,0-12.42-27.85c-19.19-21.3-34.32-27.31-60.94-32,1.63,0,3.25.06,4.88,0,14.2-.65,28.41-1.19,42.6-2,8.36-.51,12.93-8.15,9.57-15.87-4.36-10-12-17.16-20.74-23.35-21.47-15.27-29.52-17.25-60.3-28,8.06,1.11,16.2,1.81,24.16,3.4a229.9,229.9,0,0,1,62.79,21.79,206.32,206.32,0,0,1,41.13,28.48c9.38,8.38,19.06,16.54,27.56,25.76,11.94,12.94,22.91,26.76,34.29,40.21,1.8,2.13,3.56,4.3,6.28,7.6,2.72-3.53,5.28-6.34,7.26-9.51,10.49-16.81,9.58-34.17,1.92-51.65-6.72-15.35-17.33-27.09-33-33.51-4.93-2-10.31-2.9-15.7-4.36,8.26-3.73,16.48-2.66,24.17,1.4,17.14,9,28.64,23.33,36.31,40.89a79.28,79.28,0,0,1,6.81,37,208.16,208.16,0,0,1-5.11,33c-2.22,9.78-.47,12.81,9.72,12.82h8.13c.85,7.94,1.59,15.58,2.5,23.21a112.58,112.58,0,0,0,2.33,15,14.07,14.07,0,0,0,4.57,6.62c9.93,8.35,20.61,15.87,30,24.76,13.73,13,22.28,29.51,29,46.94,4.3,11.11,7.75,22.56,12.19,33.61,1.49,3.72,4.64,6.9,7.48,9.9,2,2,2.71,3.44,1.56,6.41-5.58,14.41-11.81,28.43-21,41-1.23,1.68-1.84,3.83-2.64,5.55l21.87,7.46-.53,1.86-7.55-1.53c-4.94-1-9.87-2.14-14.83-3-8.48-1.55-14.22,4.34-20.54,8.12-11.65,7-22.91,14.6-34.39,21.85-3.75,2.37-6.56,5-7,9.89C1222.39,464.78,1220.94,475.76,1219.57,487.54Zm15-74.73c11-6.25,19.15-15.26,26.36-25.11A83.12,83.12,0,0,0,1277,341.58c.52-11.64-2.87-22.82-7.15-33.4-4.2-10.39-9.84-20.24-15.31-30.07a10,10,0,0,0-11.82-5.15,33.08,33.08,0,0,1-4.81.89c-3,.28-4.39,1.69-4.11,4.84.44,5.09,1,10.2,1,15.31.11,20.16.07,40.33,0,60.49,0,6.4,2.5,11.5,7.9,14.85,4.66,2.91,9.6,5.38,13.78,7.69-2.34,1.66-5.64,3.06-7.57,5.53C1242,391.52,1238.06,402.07,1234.54,412.81Zm-106-92.36c5.34,0,7.19,1.61,7.29,5.85.07,2.49,0,5,0,7.49.25,8.1,4.22,15.2,11.21,16.66,6.58,1.37,13.59.91,20.4.76,4.86-.11,8.54-2.8,11.12-7,5.89-9.58,4.92-19.55,1.66-29.59a6.61,6.61,0,0,0-2.92-3c-6.75-4-12.38-.71-18.29,2.54-4.35,2.39-9.24,5.44-13.86,5.4-14.35-.13-25.78-8.29-30.89-24.27-2.75-8.58-3.72-17.73-5.12-24.77l-16.68,15.36,5.35-3.14c0,7,.49,13.6-.12,20.06-.77,8.27-2.19,16.54-7.1,23.66-3.59,5.21-2.58,10,2.71,13.83,7.72,5.53,15.79,5.36,23.54.75C1124.34,336.62,1131.71,331.57,1128.56,320.45Zm31.27-41.21-.7-.12a54.14,54.14,0,0,0-.05-7c-.73-5.65-2.49-10.64-8-13.82-15-8.71-31.59,3-35.13,16.3-3.14,11.76,1.44,22.11,9,30.67,5,5.64,12.1,8.8,20.06,6.28,7.32-2.33,10.58-8.41,12.07-15.43C1158.26,290.57,1158.93,284.88,1159.83,279.24Zm-77.11,379.62c0,.66,0,1.31,0,2,5.36,2.76,10.72,5.55,16.09,8.28a64.2,64.2,0,0,0,35.79,6.86c7.64-.74,15-3.29,20.87-8.81,7.86-7.43,3.7-14.76-4-17.26-14.39-4.71-28.73-3.86-43,.7Zm-1.58-365.44c-6.15,7-11.55,12.58-16.23,18.69-8,10.43-12,22.47-14.33,35.41-1.13,6.38-.26,11.24,4,15.75,2.22,2.35,4.42,3.8,7.46.92,2.48-2.36,5.52-4.15,8-6.56,15.17-15,14.63-34.23,13.73-53.41C1083.57,301.13,1082.29,298.09,1081.14,293.42Zm86.37,301c5.55.27,10.23.84,14.88.63s9.37-1.33,14.08-1.85c14.39-1.57,27.32-12.64,30.35-26.82.89-4.16.14-8.66.14-13.39a13,13,0,0,0-2.44.76C1205.93,567,1187.34,580.23,1167.51,594.38Z" transform="translate(-1 -1)"/>
        <path d="M457,481.87c.89,14.42,1.74,29.07,2.74,43.71.2,3-.66,4.85-3.77,5.26-1.28.17-2.59.22-3.88.32l-.3,1.6a19.54,19.54,0,0,0,4.4.73c5.28-.35,10.54-1.25,15.79-1.17,1.29,0,3.5,2.95,3.56,4.61.1,2.62-2.27,3.45-4.93,3.14-4.42-.51-8.89-1.33-13.28-1.08-6.86.38-13.65,2-20.5,2.24a50.66,50.66,0,0,1-14.37-1.78c-3.09-.8-2.91-5.08.12-7.06a18.62,18.62,0,0,1,4.12-1.54c7.85-2.7,9.2-4.21,9.36-12.71q.69-35.65,1-71.3a134.75,134.75,0,0,0-1-14.31c-.41-4.2-3.07-7-6.34-9.35-2.86-2.06-5.67-4.17-8.66-6.38,1.18-1.18,1.38-1.56,1.59-1.56,21.87-.72,43.74-2,65.61-1.89,13.72.07,27.09,4.46,36.57,14.6,14.36,15.38,9.72,34.82-8.42,45-4,2.23-8.14,4.1-13,6.51,10.63,15.23,21.26,30.12,31.44,45.3,2.56,3.82,4.65,6.79,9.85,6.56,2.5-.11,4.48,1.68,4.19,5-.27,3-1.56,4.48-4.63,4.58-5.26.16-10.66,1.37-15.73.52-7.84-1.3-12.09-7.87-15.25-14.34C505,510,492.31,496.44,479,483.4a7.11,7.11,0,0,0-4.43-1.47C469.1,481.76,463.67,481.87,457,481.87Zm.55-11.24a20.24,20.24,0,0,0,2,.45c6.32,0,12.67.44,18.95-.06a95.49,95.49,0,0,0,18.28-3,18.39,18.39,0,0,0,13.31-17c.41-15-13.12-27.45-27.86-28.07-3.35-.14-6.47-.2-8.93,2.93-1.78,2.28-4.29,2.28-7,.84-5.43-2.84-6.08-2.38-6.47,3.45,0,.66-.06,1.33-.1,2C459,444.88,458.31,457.68,457.58,470.63Z" transform="translate(-1 -1)"/>
        <path d="M422.44,241.49l7.79,1.09c-6,13.1-2.6,26,.51,39.28-1.95,0-3.75-.06-5.55,0-3.73.15-5.46-1.36-5.09-5.3.49-5.4-1.84-9.1-7.42-9.78-7.16-.86-14.36-1.45-21.55-1.88-4.47-.28-9-.06-14.05-.06-.42,2.85-1.19,5.53-1.15,8.21.18,10.77.4,21.54,1.13,32.28.13,2,2.53,5.33,4.15,5.5,17.78,1.84,35.66,2.77,53.3-1.05,8.16-1.76,14.89-6.65,18.24-14.35,2.44-5.61,5.9-6.05,11.19-4.85-6.83,9.83-7.46,21-7.17,32.48l-39.52,2.35,4.05-5.75c-18.83,7.26-37.68,3.22-56.21,4.11-9.12.44-18.29.07-27.61.07.31-2.35.61-4.69,1-7.37,2.64-.75,5.39-2,8.23-2.24,4.14-.36,5.64-2.92,6.36-6.31a43.74,43.74,0,0,0,1.05-8.29q.62-36.39,1-72.78a80.37,80.37,0,0,0-1-10.8c-.71-5.57-3.39-9-9.4-10s-6.1-1.4-4-8.17h114c-1.23,7.39-2.36,15.2-4,22.91a7.68,7.68,0,0,1-3.72,4.8,6,6,0,0,1-5.36-1c-1.07-1-1.32-3.58-1-5.27,1.2-6,.56-7.73-5.46-9.37a52.37,52.37,0,0,0-12-2c-9-.28-18-.23-27,0-5.91.13-11.81.75-18.15,1.19-.51,8-1,15.91-1.52,23.78l-.78-.57c-1.61,2.39-4.07,4.58-4.68,7.2a228.59,228.59,0,0,0-4.6,27.94c2.28-5.26,4.29-10.66,6.92-15.73,2.93-5.62,4.49-5.42,8.41-.51a8.34,8.34,0,0,0,5.47,2.79c7.15.32,14.32.13,21.48.12,7.6,0,8.83-.89,11.51-8C420.78,244.61,421.62,243.18,422.44,241.49Z" transform="translate(-1 -1)"/>
        <path d="M702,314.62c-.52,2.79-1,5.31-1.54,8.24-9.33,0-18.66.34-27.91-.3-1.82-.13-3.38-4.07-5.83-7.26h14.9c-.29-1.59-.5-2.78-.72-4l-7.28,1.87,6.31-23.45-5.76,6.1c0-7.13-.2-13,0-18.91.51-12.72-7-17.94-19-15.87-5.08.88-9.92,3.17-14.9,4.71-2.59.8-3.48,2.28-3.44,5.06q.24,18.24,0,36.49c-.08,7.71,5.92,10.34,11,13.78,1.16.78,2.47,1.35,4.09,2.22H601.36c.39-2.77.71-5,1.08-7.62a9.67,9.67,0,0,1,1.42-.52c10.69-2.41,13.21-5.54,13.27-16.61,0-6.54.21-13.09,0-19.62-.52-13.55-1.39-14.37-14.47-15.31C603,258.22,608,253,612.81,252a55.9,55.9,0,0,0,12.91-4.27c8.53-4.16,10.47-.05,11.14,6.26.09.81.1,1.63.17,2.86,6.47-2.45,12.53-5.43,18.93-7a82.83,82.83,0,0,1,20.88-2.53c6.52.15,11.47,4.32,14.44,10.48,12.52-5.12,25.17-8.55,38.81-7.8,14.37.79,20.07,7.8,20.7,20.41.66,12.91.8,25.86,1,38.79,0,2.43.42,4.54,3.05,4.73,5.34.38,5.57,4.63,7.41,8.88H734c-2.67,0-5.41-.41-8,.09-5.51,1.08-5.67-3-6.51-6.34-.16-.62.75-2.17,1.25-2.21,11.11-.86,10.71-9.69,11.22-17.08.5-7.2-.17-14.53-.9-21.75A13.81,13.81,0,0,0,716.55,263a173.41,173.41,0,0,0-19.83,3c-1.07.19-2.72,1.81-2.7,2.74.27,13.42.77,26.83,1.24,40.24C695.4,313,698.62,313.84,702,314.62Z" transform="translate(-1 -1)"/>
        <path d="M739.71,512.18l-8.88-6.39-.77.57c1.82,3.31,3.54,6.68,5.47,9.92,2.7,4.54,2.65,9.17,1.68,14.27-1.24,6.59-1.26,13.41-2.4,20C732.49,564,723.69,572.36,712.52,579c-11.57,6.9-23.87,10.17-37.29,8.77a33.53,33.53,0,0,1-9.47-2.16c-5.86-2.46-6.62-4.52-4.64-9.91a9.93,9.93,0,0,1,10.94-6c7.5,1.59,15,3.44,22.57,4.32,8.58,1,14.87-3.48,17.4-11.37,2.69-8.42,3.92-17.32,5.79-26-9.41,1.58-17.72,3.36-26.13,4.3-15.48,1.73-34.05-8.15-39.79-21.59-5.06-11.86-4.21-23.44,3.33-33.62,11.17-15.08,27.07-21.82,45.55-22.49a80.91,80.91,0,0,1,16.75,1c8.28,1.43,8.49,2.05,9.84,11,3.32-6.68,4.79-15.07,16-12.6A103.41,103.41,0,0,0,739.71,512.18Zm-20.13-11.65-.45,0c0-5.49.45-11-.2-16.44a10.19,10.19,0,0,0-4.36-6.74,33.43,33.43,0,0,0-11.93-4.05c-12.83-1.69-24.27-.27-30.63,15.08-2,4.92-1.72,10.89-2.09,16.4-.44,6.57,3,12,7.44,16,11.1,10,24,11.14,37.48,5.41a5.86,5.86,0,0,0,3.16-3.89C718.77,515,719.1,507.77,719.58,500.53Z" transform="translate(-1 -1)"/>
        <path d="M894.89,314.32v7.42H846.72a10.79,10.79,0,0,1-.5-1.18c-1.23-4.94-.38-7.43,5.76-8.13,7.59-.86,7.78-1.9,8.13-9.65.44-9.43.79-18.86,1-28.3,0-2.76.12-6-1.24-8.14-1.17-1.84-4.37-2.38-7.59-3.94,0-3.57,3.15-6.52,6.35-8.92,3.38-2.53,7.35-4.31,11.16-6.2,5.9-2.93,8.35-1.7,10.21,4.74a21.46,21.46,0,0,0,1.62,3.28c12.08-5.46,24.33-9.27,37.73-8.25,8.54.65,17.16,6.13,18.87,14,.83,3.84-.31,8.08-.43,12.14-.08,2.7-.64,5.64.21,8.05,3,8.49,4.78,17,2.94,26-.78,3.82.82,5.56,5,6,7.57.82,7.64,1.25,6.55,9.1H905.6c-1.07-7.52-1.12-7.81,6-9.11,5.08-.93,8.25-3.47,8.37-8.49.27-11.53.44-23.09-.07-34.6-.25-5.8-5.32-9.66-11.39-9.19-7.48.58-14.93,1.75-22.34,3-3.73.63-5.55,2.69-5.49,7.18.14,11.43-.43,22.88-.88,34.31-.19,4.75,2.3,6.88,6.53,7.62C889.24,313.58,892.14,313.92,894.89,314.32Z" transform="translate(-1 -1)"/>
        <path d="M593.77,462.72c13.46-.9,25.16,3.76,35.07,12.12,9.12,7.68,12.65,17.75,11.33,30.24-1.93,18.27-22,33.76-40.89,33.87-11.85.06-23.56.25-34.38-5.69-15-8.24-21.52-19-20.71-34.56.79-15,12.8-27,25.5-31.56a55.12,55.12,0,0,1,9.34-2.91C583.89,463.42,588.85,463.2,593.77,462.72Zm-28.91,33.41c0,20.49,12.42,33.24,31.76,32.94,15.32-.24,22.9-11,23.31-24.33.07-2.25-1.93-5.57-3.93-6.68-6.74-3.74-11.42-9-15.15-15.65-6.88-12.22-16.24-12.09-26.3-6.14A19.36,19.36,0,0,0,564.86,496.13Z" transform="translate(-1 -1)"/>
        <path d="M804.27,471.45l28.38-12c-.32,6.25-.8,12.55-.95,18.85-.37,15.64-.48,31.29-1,46.92-.08,2.51-1.74,5-2.8,7.79,5.08-2.42,11.09-8.47,16.24.79-7,5.51-14.21,9.39-23.32,9.18-4.42-.1-7.24-1.17-8.11-5.85a69.32,69.32,0,0,0-2.29-7.43c-4.58,1.61-9.13,3.31-13.74,4.79-8,2.59-16,4.87-24.77,4.53-13.15-.52-20.14-10.69-20.62-22-.38-9.07.64-18.2.77-27.31.05-2.88-.75-5.77-1.22-9l-5.42.91v-9.15c6.23-3.07,12.63-6.37,19.15-9.41,5.3-2.48,7.49-1.12,7.26,4.65-.53,13.54-1.53,27.08-1.87,40.63-.24,9.37,4.63,17.4,10.7,17.64a64.21,64.21,0,0,0,15.61-1.57c4.6-1,9-3,14.87-5,0-11.36.12-23.11-.12-34.84a8.15,8.15,0,0,0-2.66-5.46C804.22,475.67,804.06,475.87,804.27,471.45Z" transform="translate(-1 -1)"/>
        <path d="M598.64,306.45a64.62,64.62,0,0,1-31.59,15.8c-17.14,3.3-36.07-2-43-19.73-8.21-20.93,2.12-49.75,26.5-54.79,12.85-2.66,26.62-1.92,37.5,7.57,5.57,4.86,9.66,11.08,9.88,19.08.08,2.91.73,5.8,1.28,9.95-10,.53-19.41,1.22-28.88,1.48-9.28.25-18.57.05-28,.05-3.93,16.67,9,24.72,21.47,25.35,9.21.46,17.35-2.06,25.39-6.31,2.51-1.33,6.32-.21,9.53-.21C598.68,305.28,598.66,305.86,598.64,306.45Zm-17.37-31.92c-.55-1.92-1-3.79-1.64-5.61-2.2-6.47-5.53-11.3-13.94-10.06-2.42.36-4.84.78-7.28,1-9.76.82-14.43,5.2-15.87,15.27.85-.14,1.62-.25,2.38-.4,3.61-.7,7.63-2.8,10.73-1.86C564.06,275.41,572.24,277.19,581.27,274.53Z" transform="translate(-1 -1)"/>
        <path d="M925.12,499.57c-19.19,3.35-37.85,2.81-56.5,1.39-4.07,16.14,6.35,24.65,19.43,26.13,9.62,1.09,18.42-1.46,26.93-6,2.57-1.38,6.37-.49,9.73.16a57.2,57.2,0,0,1-35.31,17.54c-7.25.85-14.52.46-21.59-2.47-15.59-6.47-21.2-20.34-20.52-34.85.54-11.44,4.82-21.69,13.58-29.62,6.06-5.48,13-8.66,21.32-8.71,7.93-.05,15.72.07,23.35,3,9.69,3.68,17.92,14.37,18.37,24.58C924,493.4,924.64,496.13,925.12,499.57Zm-17.79-9c-.63-2.05-1.16-3.9-1.77-5.73-2.17-6.51-5.54-11.17-14-9.95-2.42.35-4.84.79-7.28,1-9.59.73-14.55,5.49-15.59,15.3l2.36-.51c3.46-.75,7.41-2.94,10.3-2C889.72,491.44,897.9,493.22,907.33,490.54Z" transform="translate(-1 -1)"/>
        <path d="M842.75,306.48c-11.29,9.44-23.87,15.77-39,16.53-21.53,1.07-38.36-11.41-38.55-35.21-.14-18.49,11.13-36.42,28.3-39.71,13.72-2.63,27.51-2.19,38.78,7.43,5.55,4.74,9.56,11.2,9.6,19.25,0,2.74.73,5.48,1.2,8.74-19,3.49-37.82,2.82-56.57,1.48-4.17,16.91,7.8,25.26,20.6,26.18,9.35.67,17.7-1.88,25.91-6.19,2.54-1.33,6.36-.21,9.59-.21Zm-17.42-32c-.62-2.07-1.06-3.8-1.65-5.47-2.33-6.63-5.41-11.37-14.39-10.13-2.26.31-4.51.77-6.78,1-9.88.88-14.41,5.07-16.06,15.24.86-.11,1.64-.17,2.4-.32,3.6-.73,7.63-2.9,10.72-2C808,275.37,816.15,277.23,825.33,274.47Z" transform="translate(-1 -1)"/>
        <path d="M973.16,256H956.07l8.72-15.72,7.1-.38V219.6c2.74-.45,5.77-1,8.81-1.43.49-.08,1.23-.23,1.47,0,4.66,4.89,6.23-.77,8.91-2.57l4-2.68c-1.39,9.14-2.71,17.78-4.1,26.9h23.28L1006.7,256H991.86c0,9.19-.13,18,0,26.72.16,8.26.76,16.52.92,24.78.1,5,3.95,5.68,7.29,6.46,7.17,1.67,7.21,1.48,6.35,9h-49v-7.48a64.94,64.94,0,0,1,6.82-1.92c5.88-1,8.44-5.24,8.73-10.38.49-9,.16-18,.17-27.07Z" transform="translate(-1 -1)"/>
        <path d="M496.1,218.24l11.77-8.65c-.78,4.94-1.43,9.07-2.07,13.19s-1.7,8.39-1.86,12.6q-1.23,32.26-2,64.55c-.08,3.08-.13,6.64,1.3,9.13,1.3,2.28,4.42,4.2,7.08,4.87,6.68,1.67,6.76,1.35,6.39,8.55H464.33v-6.74a67.22,67.22,0,0,1,8.2-2.36c6.11-1,8.18-5.45,8.5-10.53,1.24-19.94,2.17-39.9,3-59.86a33,33,0,0,0-1.14-9.24c-.95-3.87-4.24-4-7.51-3.91a13.38,13.38,0,0,1-2.17-.32c.32-1.08,1-2.06.79-2.83-1.7-7.2,3.11-8.91,8.43-10.28,3-.78,6.13-1.28,8.93-2.53C495.71,211.94,496.53,213.84,496.1,218.24Z" transform="translate(-1 -1)"/>
        <path class="cls-1" d="M90.25,379.74c5.56.07,9.23,2.65,11.2,7.86,2.47,6.56,5.26,13,7.73,19.59a37.69,37.69,0,0,1,1.21,6.14l-1.31,1c-7.17-6.38-14.9-12.26-21.4-19.27-10.47-11.28-16-25-19.12-40.2-2.87-14.06-1.08-27.28,3.14-40.62,4.36-13.79,10.56-26.45,21-36.7,4.15-4.07,13.32-5.17,17.6-1.42,1.44,1.25,1.58,4.41,1.64,6.71.08,2.93-.65,5.86-.81,8.81-.41,7.27-1.21,14.56-.91,21.81.63,15.33,1.72,30.64,3,45.93.34,4.26-1.9,6.6-4.76,8.56C102.53,372,96.42,375.77,90.25,379.74Z" transform="translate(-1 -1)"/>
        <path class="cls-1" d="M238.06,267.75c3.93,1.94,8.21,3.12,11.07,5.8,2,1.86,2.28,5.75,2.92,8.81q4.55,22,8.81,44.14c.61,3.16,1.42,6.67.62,9.61-.74,2.76-3.08,6.56-5.43,7.17-9.31,2.42-18.88,4.33-28.57,1.6-.29-.08-.52-.38-1.1-.84.13-.85.67-2,.38-2.9-.45-1.41-1.17-3.18-2.31-3.76-.76-.39-3,.67-3.62,1.68-4.31,7.15-11,10.91-18.75,12.41-10,1.95-20.68,3.61-28-6-3.17-4.2-4.44-9.92-6.16-15.09-.65-1.95-.06-4.29-.11-6.46-.12-4.69.18-9.4,4.64-12.12,5.62-3.42,11.34-2.15,16.74.83s10.48,7.06,17.39,7.36c8.33.37,14-3.75,18.1-10C232.85,297.57,238.63,289.32,238.06,267.75Z" transform="translate(-1 -1)"/>
        <path class="cls-1" d="M231.15,279.22c-1.61,10.93-4.2,22.29-15.15,29.54-9.2,6.09-19.85,3.88-25.07-5.79-5.87-10.85-6.62-22.59-3.76-34.38,1.88-7.74,12-13.27,20-11.6a94,94,0,0,1,10.33,2.73C227,262.82,231,268.44,231.15,279.22Z" transform="translate(-1 -1)"/>
        <path class="cls-1" d="M266.23,660.45c-6.79,3.44-13.4,7.25-20.39,10.22-10.8,4.58-22.15,7.25-34,6.39-8.42-.61-16.53-2.39-21.72-10.19-4.74-7.13-2.86-12.91,5.32-16,10.15-3.83,20.35-3.76,30.87-1.11,11.21,2.81,22.65,4.74,34,7.13a49.44,49.44,0,0,1,5.43,1.82C265.89,659.3,266.06,659.88,266.23,660.45Z" transform="translate(-1 -1)"/>
        <path class="cls-1" d="M280.87,224.31c-9.05-2.05-18-1.79-25.6,3.41s-11.13,13.21-10,23.72c-1.8-1.56-3.24-2.27-3.84-3.42-5.39-10.45-11.57-20.56-10.67-33.18,1.06-14.9,7.5-19.1,21.66-18,9,.68,14.88,6.17,19.95,12.8,3.25,4.24,6.11,8.76,9.15,13.16Z" transform="translate(-1 -1)"/>
        <path class="cls-1" d="M121.18,551.33c9,7.4,17.87,14.67,26.74,21.89s17.54,14.21,26.33,22.54c-8.39-1.21-16.89-1.92-25.15-3.74-10.18-2.25-18.84-7.54-24.86-16.28C119.11,568.27,118.58,560,121.18,551.33Z" transform="translate(-1 -1)"/>
        <path class="cls-1" d="M259.9,266.48c-3.87-4.85-8.45-9.11-11.19-14.34-4.27-8.19,8.38-24.66,16.62-22.1,2.27.71,5.76,3.91,5.48,5.33-2,10.16-3.55,20.57-9.19,29.63A13.06,13.06,0,0,1,259.9,266.48Z" transform="translate(-1 -1)"/>
        <path class="cls-1" d="M261.56,358.33c7,4.64,17.05,3.46,23.26,12.48l-31.13,10.63Z" transform="translate(-1 -1)"/>
        <path class="cls-1" d="M1234.54,412.81c3.52-10.74,7.44-21.29,14.42-30.25,1.93-2.47,5.23-3.87,7.57-5.53-4.18-2.31-9.12-4.78-13.78-7.69-5.4-3.35-7.91-8.45-7.9-14.85,0-20.16.08-40.33,0-60.49,0-5.11-.54-10.22-1-15.31-.28-3.15,1.09-4.56,4.11-4.84a33.08,33.08,0,0,0,4.81-.89,10,10,0,0,1,11.82,5.15c5.47,9.83,11.11,19.68,15.31,30.07,4.28,10.58,7.67,21.76,7.15,33.4a83.12,83.12,0,0,1-16.14,46.12C1253.69,397.55,1245.53,406.56,1234.54,412.81Z" transform="translate(-1 -1)"/>
        <path class="cls-1" d="M1128.56,320.45c3.15,11.12-4.22,16.17-11.67,20.6-7.75,4.61-15.82,4.78-23.54-.75-5.29-3.79-6.3-8.62-2.71-13.83,4.91-7.12,6.33-15.39,7.1-23.66.61-6.46.12-13,.12-20.06l-5.35,3.14,16.68-15.36c1.4,7,2.37,16.19,5.12,24.77,5.11,16,16.54,24.14,30.89,24.27,4.62,0,9.51-3,13.86-5.4,5.91-3.25,11.54-6.58,18.29-2.54a6.61,6.61,0,0,1,2.92,3c3.26,10,4.23,20-1.66,29.59-2.58,4.21-6.26,6.9-11.12,7-6.81.15-13.82.61-20.4-.76-7-1.46-11-8.56-11.21-16.66-.08-2.5,0-5,0-7.49C1135.75,322.06,1133.9,320.42,1128.56,320.45Z" transform="translate(-1 -1)"/>
        <path class="cls-1" d="M1159.83,279.24c-.9,5.64-1.57,11.33-2.76,16.9-1.49,7-4.75,13.1-12.07,15.43-8,2.52-15.11-.64-20.06-6.28-7.51-8.56-12.09-18.91-9-30.67,3.54-13.28,20.15-25,35.13-16.3,5.47,3.18,7.23,8.17,8,13.82a54.14,54.14,0,0,1,.05,7Z" transform="translate(-1 -1)"/>
        <path class="cls-1" d="M1082.72,658.86l25.83-8.26c14.26-4.56,28.6-5.41,43-.7,7.67,2.5,11.83,9.83,4,17.26-5.84,5.52-13.23,8.07-20.87,8.81a64.2,64.2,0,0,1-35.79-6.86c-5.37-2.73-10.73-5.52-16.09-8.28C1082.75,660.17,1082.74,659.52,1082.72,658.86Z" transform="translate(-1 -1)"/>
        <path class="cls-1" d="M1081.14,293.42c1.15,4.67,2.43,7.71,2.58,10.8.9,19.18,1.44,38.37-13.73,53.41-2.43,2.41-5.47,4.2-8,6.56-3,2.88-5.24,1.43-7.46-.92-4.26-4.51-5.13-9.37-4-15.75,2.3-12.94,6.34-25,14.33-35.41C1069.59,306,1075,300.45,1081.14,293.42Z" transform="translate(-1 -1)"/>
        <path class="cls-1" d="M1167.51,594.38c19.83-14.15,38.42-27.42,57-40.67A13,13,0,0,1,1227,553c0,4.73.75,9.23-.14,13.39-3,14.18-16,25.25-30.35,26.82-4.71.52-9.37,1.63-14.08,1.85S1173.06,594.65,1167.51,594.38Z" transform="translate(-1 -1)"/>
        <path class="cls-1" d="M457.58,470.63c.73-12.95,1.46-25.75,2.18-38.56,0-.66.06-1.33.1-2,.39-5.83,1-6.29,6.47-3.45,2.75,1.44,5.26,1.44,7-.84,2.46-3.13,5.58-3.07,8.93-2.93,14.74.62,28.27,13.09,27.86,28.07a18.39,18.39,0,0,1-13.31,17,95.49,95.49,0,0,1-18.28,3c-6.28.5-12.63.08-18.95.06A20.24,20.24,0,0,1,457.58,470.63Z" transform="translate(-1 -1)"/>
        <path class="cls-1" d="M719.58,500.53c-.48,7.24-.81,14.5-1.58,21.7a5.86,5.86,0,0,1-3.16,3.89c-13.52,5.73-26.38,4.55-37.48-5.41-4.47-4-7.88-9.39-7.44-16,.37-5.51.05-11.48,2.09-16.4,6.36-15.35,17.8-16.77,30.63-15.08a33.43,33.43,0,0,1,11.93,4.05,10.19,10.19,0,0,1,4.36,6.74c.65,5.41.2,10.95.2,16.44Z" transform="translate(-1 -1)"/>
        <path class="cls-1" d="M564.86,496.13a19.36,19.36,0,0,1,9.69-19.86c10.06-5.95,19.42-6.08,26.3,6.14,3.73,6.61,8.41,11.91,15.15,15.65,2,1.11,4,4.43,3.93,6.68-.41,13.34-8,24.09-23.31,24.33C577.28,529.37,564.86,516.62,564.86,496.13Z" transform="translate(-1 -1)"/>
        <path class="cls-1" d="M581.27,274.53c-9,2.66-17.21.88-25.62-1.68-3.1-.94-7.12,1.16-10.73,1.86-.76.15-1.53.26-2.38.4,1.44-10.07,6.11-14.45,15.87-15.27,2.44-.2,4.86-.62,7.28-1,8.41-1.24,11.74,3.59,13.94,10.06C580.25,270.74,580.72,272.61,581.27,274.53Z" transform="translate(-1 -1)"/>
        <path class="cls-1" d="M907.33,490.54c-9.43,2.68-17.61.9-26-1.89-2.89-1-6.84,1.23-10.3,2l-2.36.51c1-9.81,6-14.57,15.59-15.3,2.44-.19,4.86-.63,7.28-1,8.47-1.22,11.84,3.44,14,9.95C906.17,486.64,906.7,488.49,907.33,490.54Z" transform="translate(-1 -1)"/>
        <path class="cls-1" d="M825.33,274.47c-9.18,2.76-17.35.9-25.76-1.67-3.09-.94-7.12,1.23-10.72,2-.76.15-1.54.21-2.4.32,1.65-10.17,6.18-14.36,16.06-15.24,2.27-.2,4.52-.66,6.78-1,9-1.24,12.06,3.5,14.39,10.13C824.27,270.67,824.71,272.4,825.33,274.47Z" transform="translate(-1 -1)"/>
    </g>
</svg>
