<svg xmlns="http://www.w3.org/2000/svg" viewBox="0 0 764 764" style="fill:#801c32">
  <defs>
    <style>
      .cls-1 {
        fill: rgba(0,0,0,0);
      }
    </style>
  </defs>
  <title>Asset 2</title>
  <g id="Layer_2" data-name="Layer 2">
    <g id="Layer_1-2" data-name="Layer 1">
      <g>
        <path class="cls-1" d="M1,1H765V765H1ZM113.5,184.43c-1.5,10.39-3.32,20.81-4.41,31.31-.91,8.75-3.94,15.27-12.06,20-12.23,7.17-22.56,16.95-31.56,27.92-12.41,15.11-19.16,33-24.49,51.54-2.89,10.07-4.72,20.69-12.78,28.57-.86.84-.71,3.38-.19,4.84,1.9,5.28,4.17,10.44,6.28,15.65C42,383.26,51,401.39,69.74,412c11.22,6.34,22.78,12.1,34.32,17.85,6.07,3,9.06,7.67,10,14.25,1.31,8.81,3.15,17.53,4.67,26.3a14.66,14.66,0,0,1-.28,3.61C91.42,460.23,68.57,443,57.3,413.69c4.11,16.53,8.52,32.75,14,48.57C75.09,473,80,483.46,88.85,491.31c1.64,1.46,3.33,2.86,6.24,5.34-16.72,1-32-4.55-47.14-.27,9.81-.76,18.44,2.29,26,8.2,10.82,8.46,21.13,17.61,32.2,25.74,4.87,3.58,5.36,6.33,3.15,11.74-4.51,11-3.24,21.64,4.5,31.25A51,51,0,0,0,133,587.93c17.62,8,36.6,11,55.26,15.15a8.64,8.64,0,0,1,5.11,3.76c4.38,8,8.34,16.28,12.56,24.66-3.95.47-8.52.76-13,1.57-11.54,2.08-23.19,3.95-33.22,10.71-6.36,4.29-7.64,11.1-3.72,17.68,4.37,7.35,11.42,10.87,19,13.48,24.17,8.32,48.59,5.74,72.79.58,7.1-1.52,11.45-2,17.23,4.28,9.25,10.07,21.54,16.8,34.36,22.11,19.71,8.17,40.53,9.33,61.45,10,4.63.14,9.29-1.5,10.41,6.39,1,7.29,5.07,14.17,7.88,21.19.93,2.32,2.14,4.51,3.78,7.91a57.86,57.86,0,0,0,3-5.57c3.24-8.64,6.66-17.24,9.43-26,.86-2.74,1.83-3.44,4.35-3.28,25.31,1.6,48.75-4.86,70.28-17.69A156.18,156.18,0,0,0,495.89,675c3.34-3.09,5.31-4.12,9.52-2.79,23.93,7.54,48.35,10,73.18,5.72,10.39-1.81,20.17-5.35,27.09-14.12s6-16.74-4.17-21c-11.14-4.7-23.12-7.52-34.88-10.6-5-1.29-10.28-1.13-15.19-1.61,3.64-7.5,6.92-14.52,10.48-21.41a7.49,7.49,0,0,1,3.82-3.51c10.53-3.36,21-7,31.77-9.5,15.58-3.58,31.53-5.64,44.61-16.17,10.92-8.78,16.91-20.5,10.14-34.18-.27,12-5.24,21.8-15.16,28.55-13.61,9.26-29.16,8.54-44.64,7.43-.36,0-.67-.67-1.35-1.4,5-3.31,10-6.37,14.79-9.83,28.51-20.74,56.88-41.68,85.48-62.3,7.28-5.25,14.25-11.46,23.89-12.37.46,0,.8-1.37,1.19-2.1-.82-.27-1.69-.86-2.46-.76-2.22.31-4.37,1.12-6.58,1.35q-13.62,1.43-27.27,2.59c-4.25.37-8.53.49-13.37.75,4.86-5.08,9.62-8.9,12.94-13.72,12.83-18.6,15.71-40.68,20.85-62-12.27,25.23-35.45,38.28-57.64,53.55-.45-1.73-.81-2.36-.74-2.92,1.25-9,2.56-18,3.82-26.94.83-5.91,1.44-11.41,7.67-15.09,15.37-9.11,30.28-19,45.49-28.41,2-1.24,4.77-2.33,7-2,7,1.06,13.84,2.83,20.75,4.31.76.16,1.54.27,2.31.4.17-.59.33-1.18.5-1.77l-20.4-6.35c.67-1.41,1.32-2.88,2.06-4.3Q722,372,732.68,351.61c1.84-3.53,2.31-6.46-1.95-9.11a15.8,15.8,0,0,1-5.47-6.92,165.26,165.26,0,0,1-6.31-17.2c-10.89-35.06-28.06-65.66-60-86-4.28-2.73-9.64-4.87-10.42-11.19-.69-5.57-1.81-11.09-2.5-16.66-.86-7-1.48-14-2.13-20.26-5-.45-9.34-.51-13.52-1.3-4.71-.9-6.3-3.75-5.37-8.47,1.37-6.95,2.86-13.87,4.19-20.83,4.26-22.12,1.34-43.16-9.86-62.83C611.51,77.13,601.23,66,586.62,59.31c-6.55-3-14.84-3.43-19.46-.87,2.26.4,4.39.59,6.41,1.15,19.22,5.33,32.09,18.06,40,35.79,8.71,19.55,8.92,38.77-4.76,56.64-4,5.22-5.83,5.32-9.9.38-9.47-11.51-18.77-23.16-28.42-34.51A297.71,297.71,0,0,0,526.26,76.2c-26.1-20.34-55.56-33.57-87.76-40.79-7-1.56-14.08-2.54-21.12-3.78A6.44,6.44,0,0,0,420.73,34c12.64,5.61,25.56,10.7,37.84,17A75,75,0,0,1,487.46,77c7.6,11.66,0,20.79-10.22,21.12-9.47.3-18.93.79-28.4,1.23-2.59.13-5.19.39-7.78.59,19.92,4,36.32,13.66,49.79,28.46,8.71,9.56,14.42,20.58,15.15,33.73.81,14.82-5.48,26.6-16,36.48-10,9.36-18.65,8.07-26.78-2.57-3.78-5-5.63-11.39-8-16.37-.61,2-1.54,5.19-2.46,8.35-2.78,9.59,1,15.72,10.6,18.06,7,1.71,14,3.86,20.87,6.07,3.46,1.11,5.27,3.5,5,7.56a126.46,126.46,0,0,0,0,13.49,28.48,28.48,0,0,0,7.45,19.28c.16-2.43.35-4,.34-5.54,0-8-.22-16,0-24,.15-6.74,1.73-8,8.46-8h12.8a62.49,62.49,0,0,0-14.88-4c-4.92-.56-9.95-.12-15.08-.12,1.08-1.6,1.95-3,2.93-4.32,6.86-9.25,14-18.25,24.65-23.48,8.6-4.21,20.26-2.07,23.45,5.22,4.74,10.84,7.22,22.43,5.27,34.37-1.43,8.73-7.85,14.09-14.69,18.68-7.49,5-15.27,9.62-23,14.43,3.5,2.16,2,4.54.23,6.66s-3.35,4.17-7.36,2.47c-9.52-4-19.24-8-29.27-10.21-7.36-1.65-15.46-1.83-23.12,1.53,5.76,5.06,13.33,7.45,18.24,5.94,12.39-3.81,21.91,2.58,32.69,8.63l-9.4,8.48c-6.31,10.63-14.75,18.93-21,28.71-6.53,10.18-13.35,20.19-19.73,30.48-6.28,10.11-12.15,20.48-18.24,30.72s-12.24,20.52-18.37,30.77a11,11,0,0,1-1.49-5.8c.15-24,.54-48,.51-72,0-42.81,0-85.63-.73-128.43a193.14,193.14,0,0,0-4.35-37.9c-6.88-31.56-21.05-60-39.72-86.24-2.17-3-4.84-5.73-7-8.29q-1.76,166.58-3.52,332.39a5.86,5.86,0,0,1-3.38-2.6c-13.86-22.93-27.53-46-41.58-68.78-6.67-10.84-7-10.64.29-18.91-3.88-1.59-9.11-2.23-11.88-5.17-7.58-8.06-14-17.16-21.11-25.69-2.44-2.94-1.57-5.08,1.26-6.34,4.5-2,9.23-3.52,13.91-5.11,4.06-1.39,8.18-2.59,12.27-3.88-.1-.44-.21-.89-.32-1.33L289,254.09c-7.28-.78-12.47,2.3-16,8.61-.85,1.53-2,2.91-3.06,4.53L254.8,256c9.1-9.9,14.88-20.73,15.24-34,.11-3.72,2.17-6.18,5.49-8.21,7.44-4.54,15.7-5,23.94-5.7,6.44-.59,11.16-4,12.2-10.34,1.07-6.59,1.19-13.34,1.7-19.67-3.72,6.55-6.91,13.43-11.24,19.48-6,8.38-16.23,9-23.89,2.27-12.91-11.3-17.71-26.31-14.79-42.27,4.92-26.95,21.23-45.42,47.39-54.61,3.67-1.29,7.48-2.21,11.22-3.3-9.78-.52-19.44-.25-29.09-.58-12.45-.43-18.32-6.7-15.77-17.33,1-4.29,3.86-8.43,6.72-12C293.42,58,306,50.23,319.56,44.05c8.54-3.89,17.32-7.24,26-10.84a38,38,0,0,0-6.33.76A212.71,212.71,0,0,0,260,63.49c-16.58,10.2-32.21,21.69-46.17,35.22s-27.42,27.6-40.85,41.66c-6,6.3-11.46,13.17-17.46,20.14-14.55-15.29-18.7-33.08-14.19-52.06C147.92,80.56,164,61.23,195,57.6c-9.65-3.59-23.35-.56-33.24,7.24-22.71,17.92-33.21,42-34.54,70.34-.66,13.85,2.29,27.3,7.38,40.24,1.91,4.84,1.18,6.72-4,7.56C125.09,183.88,119.43,184,113.5,184.43Z" transform="translate(-1 -1)"/>
        <path d="M113.5,184.43c5.93-.46,11.59-.55,17.11-1.45,5.16-.84,5.89-2.72,4-7.56-5.09-12.94-8-26.39-7.38-40.24,1.33-28.31,11.83-52.42,34.54-70.34C171.64,57,185.34,54,195,57.6c-31,3.63-47.07,23-53.68,50.85-4.51,19-.36,36.77,14.19,52.06,6-7,11.44-13.84,17.46-20.14,13.43-14.06,26.89-28.13,40.85-41.66s29.59-25,46.17-35.22A212.71,212.71,0,0,1,339.22,34a38,38,0,0,1,6.33-.76c-8.67,3.6-17.45,6.95-26,10.84C306,50.23,293.42,58,283.92,69.71c-2.86,3.52-5.69,7.66-6.72,12C274.65,92.29,280.52,98.56,293,99c9.65.33,19.31.06,29.09.58-3.74,1.09-7.55,2-11.22,3.3-26.16,9.19-42.47,27.66-47.39,54.61-2.92,16,1.88,31,14.79,42.27,7.66,6.73,17.87,6.11,23.89-2.27,4.33-6,7.52-12.93,11.24-19.48-.51,6.33-.63,13.08-1.7,19.67-1,6.35-5.76,9.75-12.2,10.34-8.24.74-16.5,1.16-23.94,5.7-3.32,2-5.38,4.49-5.49,8.21-.36,13.3-6.14,24.13-15.24,34l15.13,11.28c1.1-1.62,2.21-3,3.06-4.53,3.49-6.31,8.68-9.39,16-8.61l15.67,1.7c.11.44.22.89.32,1.33-4.09,1.29-8.21,2.49-12.27,3.88-4.68,1.59-9.41,3.1-13.91,5.11-2.83,1.26-3.7,3.4-1.26,6.34,7.08,8.53,13.53,17.63,21.11,25.69,2.77,2.94,8,3.58,11.88,5.17-7.28,8.27-7,8.07-.29,18.91C324.25,345,337.92,368.07,351.78,391a5.86,5.86,0,0,0,3.38,2.6q1.75-166,3.52-332.39c2.2,2.56,4.87,5.25,7,8.29,18.67,26.24,32.84,54.68,39.72,86.24a193.14,193.14,0,0,1,4.35,37.9c.7,42.8.68,85.62.73,128.43,0,24-.36,48-.51,72a11,11,0,0,0,1.49,5.8q9.19-15.37,18.37-30.77c6.09-10.24,12-20.61,18.24-30.72,6.38-10.29,13.2-20.3,19.73-30.48,6.28-9.78,14.72-18.08,21-28.71l9.4-8.48c-10.78-6.05-20.3-12.44-32.69-8.63-4.91,1.51-12.48-.88-18.24-5.94,7.66-3.36,15.76-3.18,23.12-1.53,10,2.25,19.75,6.19,29.27,10.21,4,1.7,5.49-.26,7.36-2.47s3.27-4.5-.23-6.66c7.71-4.81,15.49-9.4,23-14.43,6.84-4.59,13.26-9.95,14.69-18.68,2-11.94-.53-23.53-5.27-34.37-3.19-7.29-14.85-9.43-23.45-5.22-10.65,5.23-17.79,14.23-24.65,23.48-1,1.32-1.85,2.72-2.93,4.32,5.13,0,10.16-.44,15.08.12a62.49,62.49,0,0,1,14.88,4h-12.8c-6.73,0-8.31,1.29-8.46,8-.19,8,0,16,0,24,0,1.55-.18,3.11-.34,5.54a28.48,28.48,0,0,1-7.45-19.28,126.46,126.46,0,0,1,0-13.49c.31-4.06-1.5-6.45-5-7.56-6.9-2.21-13.83-4.36-20.87-6.07-9.62-2.34-13.38-8.47-10.6-18.06.92-3.16,1.85-6.31,2.46-8.35,2.35,5,4.2,11.41,8,16.37,8.13,10.64,16.79,11.93,26.78,2.57,10.55-9.88,16.84-21.66,16-36.48-.73-13.15-6.44-24.17-15.15-33.73-13.47-14.8-29.87-24.48-49.79-28.46,2.59-.2,5.19-.46,7.78-.59,9.47-.44,18.93-.93,28.4-1.23,10.22-.33,17.82-9.46,10.22-21.12A75,75,0,0,0,458.57,51c-12.28-6.33-25.2-11.42-37.84-17a6.44,6.44,0,0,1-3.35-2.38c7,1.24,14.15,2.22,21.12,3.78,32.2,7.22,61.66,20.45,87.76,40.79a297.71,297.71,0,0,1,44.21,41.69c9.65,11.35,18.95,23,28.42,34.51,4.07,4.94,5.91,4.84,9.9-.38,13.68-17.87,13.47-37.09,4.76-56.64-7.89-17.73-20.76-30.46-40-35.79-2-.56-4.15-.75-6.41-1.15,4.62-2.56,12.91-2.12,19.46.87C601.23,66,611.51,77.13,619.3,90.79c11.2,19.67,14.12,40.71,9.86,62.83-1.33,7-2.82,13.88-4.19,20.83-.93,4.72.66,7.57,5.37,8.47,4.18.79,8.49.85,13.52,1.3.65,6.22,1.27,13.26,2.13,20.26.69,5.57,1.81,11.09,2.5,16.66.78,6.32,6.14,8.46,10.42,11.19,32,20.39,49.15,51,60,86a165.26,165.26,0,0,0,6.31,17.2,15.8,15.8,0,0,0,5.47,6.92c4.26,2.65,3.79,5.58,1.95,9.11Q722,372,711.34,392.43c-.74,1.42-1.39,2.89-2.06,4.3l20.4,6.35c-.17.59-.33,1.18-.5,1.77-.77-.13-1.55-.24-2.31-.4-6.91-1.48-13.77-3.25-20.75-4.31-2.18-.33-5,.76-7,2-15.21,9.41-30.12,19.3-45.49,28.41-6.23,3.68-6.84,9.18-7.67,15.09-1.26,9-2.57,17.95-3.82,26.94-.07.56.29,1.19.74,2.92,22.19-15.27,45.37-28.32,57.64-53.55-5.14,21.33-8,43.41-20.85,62-3.32,4.82-8.08,8.64-12.94,13.72,4.84-.26,9.12-.38,13.37-.75q13.65-1.17,27.27-2.59c2.21-.23,4.36-1,6.58-1.35.77-.1,1.64.49,2.46.76-.39.73-.73,2.06-1.19,2.1-9.64.91-16.61,7.12-23.89,12.37-28.6,20.62-57,41.56-85.48,62.3-4.75,3.46-9.79,6.52-14.79,9.83.68.73,1,1.38,1.35,1.4,15.48,1.11,31,1.83,44.64-7.43,9.92-6.75,14.89-16.56,15.16-28.55,6.77,13.68.78,25.4-10.14,34.18-13.08,10.53-29,12.59-44.61,16.17-10.75,2.47-21.24,6.14-31.77,9.5a7.49,7.49,0,0,0-3.82,3.51c-3.56,6.89-6.84,13.91-10.48,21.41,4.91.48,10.24.32,15.19,1.61,11.76,3.08,23.74,5.9,34.88,10.6,10.13,4.27,11,12.32,4.17,21s-16.7,12.31-27.09,14.12c-24.83,4.32-49.25,1.82-73.18-5.72-4.21-1.33-6.18-.3-9.52,2.79A156.18,156.18,0,0,1,470,694.78c-21.53,12.83-45,19.29-70.28,17.69-2.52-.16-3.49.54-4.35,3.28-2.77,8.79-6.19,17.39-9.43,26a57.86,57.86,0,0,1-3,5.57c-1.64-3.4-2.85-5.59-3.78-7.91-2.81-7-6.83-13.9-7.88-21.19-1.12-7.89-5.78-6.25-10.41-6.39-20.92-.62-41.74-1.78-61.45-10-12.82-5.31-25.11-12-34.36-22.11-5.78-6.28-10.13-5.8-17.23-4.28-24.2,5.16-48.62,7.74-72.79-.58-7.61-2.61-14.66-6.13-19-13.48-3.92-6.58-2.64-13.39,3.72-17.68,10-6.76,21.68-8.63,33.22-10.71,4.48-.81,9.05-1.1,13-1.57-4.22-8.38-8.18-16.63-12.56-24.66a8.64,8.64,0,0,0-5.11-3.76c-18.66-4.17-37.64-7.2-55.26-15.15a51,51,0,0,1-19.16-14.62c-7.74-9.61-9-20.24-4.5-31.25,2.21-5.41,1.72-8.16-3.15-11.74C95.08,522.19,84.77,513,74,504.58c-7.56-5.91-16.19-9-26-8.2,15.16-4.28,30.42,1.24,47.14.27-2.91-2.48-4.6-3.88-6.24-5.34C80,483.46,75.09,473,71.34,462.26c-5.52-15.82-9.93-32-14-48.57C68.57,443,91.42,460.23,118.5,474a14.66,14.66,0,0,0,.28-3.61c-1.52-8.77-3.36-17.49-4.67-26.3-1-6.58-4-11.23-10-14.25C92.52,424.11,81,418.35,69.74,412,51,401.39,42,383.26,34.29,364.29c-2.11-5.21-4.38-10.37-6.28-15.65-.52-1.46-.67-4,.19-4.84,8.06-7.88,9.89-18.5,12.78-28.57,5.33-18.56,12.08-36.43,24.49-51.54,9-11,19.33-20.75,31.56-27.92,8.12-4.76,11.15-11.28,12.06-20C110.18,205.24,112,194.82,113.5,184.43ZM257.59,364.32c2.09-.77,4.17-1.55,6.26-2.31l13.88-5.07c-6.56-9.36-16.49-8.86-24.37-13.12-2.79,7.32-5.64,14.28-8,21.39-.77,2.31.68,3.28,3.21,2.22,3-1.25,6.11-2.17,9.17-3.24L239,377.32c0-2.18-.16-5.4.06-8.61.13-1.85.25-4.51,1.43-5.36,5.91-4.3,7.32-10.84,9.26-17.13.91-3-.62-4.11-3.66-4.29-8.52-.53-16.41,1.63-24.08,5.06-19.91,8.92-25.87,30.36-23.72,45.83,1.45,10.46,8.81,17.32,18.93,20.32,12,3.57,24,3.94,34.11-5.12,3.46-3.09,6.08-7.12,9-10.63,2.43,10.58.92,12.73-8.14,17.9-.29.17-.56.36-.83.55-9.29,6.57-21,9.7-27.73,19.93-4.26,6.49-9.86,12.33-12.95,19.31-4.18,9.45-4.2,13.16,7.87,14.25,1.13.1,2.28.11,3.41.18,9.39.57,17.71,9.49,20.32,17.22-4.18-3.19-13.58,1.59-16.22,8.47,5.18.62,10.46.64,15.38,2,6.08,1.67,7.74,5.14,7.61,12.78-1.31-.29-2.56-.61-3.83-.84-10.52-1.87-14.89.93-16.9,10.8-1.79,8.78,2.58,14.46,11.36,14.08a190.7,190.7,0,0,0,21.74-2.14c4.25-.67,6.51.92,7.4,4.54q3.78,15.35,7.08,30.82c1,4.72-.84,7.34-6.08,6.83-.81-.08-1.7.63-3.3,1.28l33.81,25.13c1.59-9,.66-16.43-2.74-23.36-5.38-10.94-3.26-20.44,3.57-30.07,12-16.92,27.34-30.38,43.83-42.4,7.08-5.16,12.05-9.55,9.08-18.8a7.27,7.27,0,0,1-.06-3c.41-3.67-1.11-5.17-4.85-4.91-10.93.74-21.91,1-32.81,2-16.85,1.66-33,5.1-42,21.89-9.06-6-14.68-19.14-11.92-28.74,1.53-5.33,4.18-10.35,6.34-15.51,1.72-4.08,4-4.22,7.12-1.27a9.43,9.43,0,0,0,5.13,2.62c10.23.84,20.48,1.37,30.72,1.92.59,0,1.23-.75,3.06-1.94-8.27-1.75-13.09-6.37-15.54-13-2.28-6.15-5.64-9.92-12.74-9.28-1.71.16-3.51-.84-5.28-1.27-3.87-.92-5.18-3.22-3.66-7.53,2.23,1.28,4.27,2.61,6.45,3.65,3.23,1.53,7,2.9,9.68-.16,2.28-2.56,5.1-6.2,4.85-9.12a18.2,18.2,0,0,0-10.43-15.38c-1.83-.89-3.61-1.88-5.4-2.82,4.84-2,9.37-3.52,13.6-5.67,2.8-1.42,4.16-3.78,3-7.45-2.67-8.48-4.89-17.11-7.3-25.68-.77-2.76-1.58-5.5-2.32-8.09-9,2.27-14,7.59-15.29,16.39C268.74,369.53,266,361.47,257.59,364.32ZM493.67,578.76c-1.83-4-4.16-6.9-4.44-10-1-11.22,1.36-22.06,5.37-32.51,2.47-6.44,4.16-6.81,11.1-5.9a225.4,225.4,0,0,0,22.8,1.59c4.47.13,8.07-3.72,8.51-8.15.75-7.52-1.86-14.5-6-15.69a8.66,8.66,0,0,0-3.47-.23c-3.35.47-6.68,1.12-10.74,1.82,2-13.13,13.66-10.58,22.26-13.93-4.55-4.26-7.29-9.75-14.16-9.8,4.74-10.27,11.51-17.16,23.75-15.88a21.49,21.49,0,0,0,3-.05c8.78-.22,11.66-4.27,9.87-12.85-3-14.36-11.73-24.09-24-31.08-.86-.49-2.5.38-4.18.7-1-1.69-2-5.59-4.35-6.85-7.43-3.95-8.82-10.93-11.4-19.18,2.37,3,4.09,4.77,5.28,6.82,7.61,13,36.64,13.64,45.3-3.61,4-7.94,3.64-16.1,2.39-24.31a45.85,45.85,0,0,0-41-39.05c-10.84-1.12-14.86,2.57-11.66,13.14,2.54,8.38,6,16.47,9.11,24.69a37.5,37.5,0,0,1-5.94-5.88c-1.27-1.45-3-2.66-3.77-4.34-3.12-6.94-5.77-14.09-9-21-.61-1.28-3.64-2.72-4.74-2.24-5.82,2.59-11.39,5.77-16.63,8.52,1.33,8.3,6.86,9.29,13,9.76L488.6,365.4,483,357c-6,14.51-11.5,27.64-17.29,41.57,4.52.56,8.23,1,11.94,1.48,3.91.47,7.82.9,11.73,1.35a58.32,58.32,0,0,1-11.48.58c-5.6-.22-9.45,2.28-10.85,7.56A157.65,157.65,0,0,0,464,426c-.44,2.88-.14,6.51,3,7,2.21.33,5-1.72,7.2-3.2,1.85-1.25,3.22-3.21,4.81-4.85l1,1c-2.78,6.43-5.43,12.85-13.55,14.83-1.77.43-3.6,2.44-4.53,4.19-2.68,5-4.91,10.29-7.34,15.49,6.62,3.47,24.21,1.39,34-4.32,13.65,13.83,12.31,34.86-3.3,45-1.94-2.11-3.72-4.63-6-6.43-4.42-3.43-8.76-7.44-13.83-9.45-16.46-6.54-34-7.93-51.48-9.32-3-.23-3.79,1.25-3.79,3.83,0,4.83-.46,9.7,0,14.48a10.78,10.78,0,0,0,3.43,6.51c10,8.42,20.54,16.19,30.34,24.81A102.15,102.15,0,0,1,467,554c3.61,6.74,3.93,13.39-.06,20.23a36.57,36.57,0,0,0-4.32,10.51c-1.09,5.13-1.26,10.46-1.81,15.7l2,.9ZM342,425.18l13.34,10a73.27,73.27,0,0,0,.87-7.39c0-6.67-.18-13.33-.22-20,0-8.29,0-8.29-7.24-9.11a25.24,25.24,0,0,0-1-4.35c-1.13-2.56-2.48-5-3.76-7.52-6.33-12.46-12.26-25.12-25.5-32.24-4.85-2.61-5.36-6-3.27-11.39.27-.67.56-1.75.23-2.19-3.41-4.67-7-9.25-10.45-13.85l-2.24.77c0,4.06.21,8.13,0,12.17-1.92,32.14,10.66,58.75,31.18,82.37,8.82,10.15,18,20,26.26,30.6,3.92,5,8,7.69,14.21,7.11,1.35-.12,2.72,0,4.08,0a31.38,31.38,0,0,1-10.19,3.77c-16,2.76-32,3.11-47.92-.64-1.8-.42-4.15,1.46-6.24,2.28,1.56,1.17,3.06,3.26,4.69,3.36,13.73.89,27.51,2.11,41.24,1.82,10.75-.23,22-2.28,30.41-9.24a311,311,0,0,0,33.84-32.28c8.9-10,15.9-21.63,23.78-32.51C460.78,379.18,468.48,359.94,468,338c-.07-3-.9-6-1.62-10.47l-20.22,23.24,9.33-1c-2.66,3.2-5.59,5.36-8.37,7.7-10.71,9-18.07,20.65-25.39,32.29-3.91,6.23-8.74,12.46-10.42,19.36-1.95,8-.92,16.77-1.12,25.21,0,.38.56.77,1.33,1.76l8.48-6.76c-10.86,12.59-22.66,23.93-36.8,30C368.82,447.47,352.67,439.59,342,425.18ZM300.63,601.35c7.92,4.65,14.8,9.28,22.18,12.9,11.11,5.46,22.53,10.28,33.89,15.22,3.38,1.47,5.54.41,5.32-3.7-.4-7.52-.83-15-1.19-22.58-.24-5.09-.37-10.18-.53-15.27,0-.16.15-.31.15-.47.13-6.24.56-12.49.29-18.71-.26-5.93-1.29-11.81-1.89-17.72-.62-6.08-1.07-12.18-1.78-18.25-.11-1-1.54-1.8-1.72-2.81-.51-2.83-2-6.88-.75-8.38,3.74-4.36,2.06-8.11.66-12.83a45,45,0,0,0-4,2.52c-5.88,4.56-12.17,8.71-17.46,13.87-8.88,8.65-17.43,17.69-25.48,27.11-4,4.64-4.69,10.61-.49,16,3.83,4.88,8.1,9.24,14.84,9.93,1.13.12,2.18,1.07,3.83,1.93-5.41,2.88-10.72,4.75-14.79,8.13S304.49,596.63,300.63,601.35Zm103.55,31.43c8.31-3.68,15.43-6.34,22.07-9.9,9.89-5.31,19.55-11.1,29.1-17,5.61-3.47,5.68-4.73,2.45-10.48-3.41-6.06-8.72-9.75-15.07-12.29-1.89-.75-3.42-2.39-5.11-3.62,1.44-1.27,2.09-1.41,2.74-1.44,7.47-.24,13.43-3,17.08-9.91,3.84-7.23.15-13.23-4.14-18-8.4-9.38-17.53-18.13-26.73-26.74-5.24-4.92-11.21-9.06-17.43-14-1.5,4.62-2,8.34-.08,12.4,1.66,3.46,2.15,7.07-2.26,9.29-1,.51-2,1.14-2.7,1.55,2.86,5.21,4.52,9.42,1.17,13.94a4.43,4.43,0,0,0-.34,2.4c0,7,.13,14,0,21.06-.06,3.44-.79,6.87-.84,10.31-.11,6.74.17,13.49.06,20.23-.12,7-.62,14-.73,21C403.37,624.82,403.84,628.09,404.18,632.78ZM101,401.06c4-8-7.76-32.64-16.33-36.29.73-.55,1.33-1.07,2-1.49,4.87-3.1,10-5.84,14.53-9.41,2.17-1.72,4.45-5,4.36-7.57-.4-12.41-2.14-24.78-2.33-37.18-.21-14.29.76-28.6,1.06-42.9,0-1.61-.45-3.91-1.56-4.74-4.8-3.57-14.81-2.85-18.51,2-6.08,8-12.35,16-16.74,25-7.74,15.68-11,32.6-8.19,50.13,2.77,17,9.38,32.36,21.78,44.65C87.27,389.32,94.05,394.84,101,401.06Zm556.2-1.19,1.2,1a9.41,9.41,0,0,0,2.45-1.31c8.23-8.14,17.29-15.64,24.39-24.68,10.93-13.89,17-30.57,16.27-48.11-.86-20.88-8.14-40.39-19.59-58.06-4.33-6.68-9.36-11.71-18.74-8.91-5.41,1.62-6.43,2.24-6.21,7.88.72,18.94,1.24,37.88,1.66,56.82.11,4.81-.5,9.63-.65,14.45-.29,8.72,3.33,15.32,11,19.61,3.2,1.8,6.46,3.5,9.93,5.37C666.49,373.2,662.77,387.06,657.22,399.87Zm-427.87-147a70.52,70.52,0,0,1,.31,7.18c-.62,13.14-5.5,24.73-13,35.34s-17.61,13-29,6.51c-3.15-1.79-6.17-3.91-9.49-5.31-9.23-3.89-17.62.06-18.94,9.24-1.21,8.35-.13,16.59,4.63,23.92,3.43,5.27,8.28,8.7,14.6,9.17,13.69,1,26.22-1.26,34.83-13.56.64-.91,2.14-1.21,3.24-1.79.52,1.11,1.64,2.32,1.45,3.3-.82,4.46,1.91,5.28,5.18,5.2,6.47-.16,13-.33,19.38-1,9.82-1,13.12-5.42,11.37-15.22-3.18-17.87-6.6-35.7-10-53.54-.26-1.36-1-3.18-2.07-3.76C238,256.59,234.05,255,229.35,252.92Zm323.5,55.31c6.37.12,7.56,1.94,6.67,8.78-1.37,10.57,3.21,19.32,12.49,21.36a60.42,60.42,0,0,0,18.61.66c8.52-.86,13.9-6.54,15.47-14.65a53.66,53.66,0,0,0,.43-18.27c-1.43-9-9.5-12.47-17.8-8.54a64.47,64.47,0,0,0-6.85,4c-12.19,7.69-28.47,4.19-36.85-7.63-7-9.84-9.87-20.78-10-32.65,0-2.23-.24-4.46-.43-7.76a88.25,88.25,0,0,0-19,18.22c.33.41.65.83,1,1.25,1.41-.42,2.83-.83,5.54-1.61-.4,7.19-.36,14-1.24,20.61-1.06,8-2.26,16.09-7.91,22.61-2.63,3-1.5,6.52.54,9.16a23.25,23.25,0,0,0,7.12,6c7.28,3.94,14.51,2.84,21.1-1.73C548.43,323.41,556.57,319.35,552.85,308.23ZM362.42,649.06a239.49,239.49,0,0,1-57.72,9c-1.56,0-3.08,1.24-5.05,2.09,8.84,13.65,18.81,25.35,30.83,35.13,9.5,7.73,20.23,13.13,32.83,13.88,6.22.37,6.11.51,4.63-5.5-2.26-9.17-5.77-18-4.05-28,.71-4.14-1.6-8.36.76-13.3C366.16,659.19,363.39,654,362.42,649.06Zm40.35,61.16c6-2.23,12.2-3.94,17.86-6.79,10.48-5.27,17.89-14.26,25.15-23.1,5.13-6.24,9.48-13.14,14-19.85,1.57-2.34,1.68-4.42-2.22-4.36-17.24.28-34-2.58-50.48-7.56-1.07-.33-3.62.6-3.63,1-.11,4.87.05,9.76.32,14.63.08,1.42,1.55,3.42,1,4.09-3.19,4-.9,8.59-1.65,12.77-1.38,7.59-3.23,15.11-5.12,22.6C396.68,709,396.72,709.2,402.77,710.22ZM585.27,265.9c-1.13-7.69-1.35-15.08-8.19-19.93-11-7.81-25.37-4.15-34.26,7.91-9.67,13.11-1.61,36.25,12,43.49,10.42,5.56,20.58,2.46,24.8-8.58C582.38,281.5,583.44,273.55,585.27,265.9ZM198.45,241.61l-.44,1.24c-12.84-.08-19.59,5.29-20.89,17.52a49.88,49.88,0,0,0,4.64,27.54c5.32,10.88,16.29,13.88,26.56,7.33,10.58-6.75,18.27-26.11,14.25-37.85a19.3,19.3,0,0,0-7.75-9.71C209.89,244.77,204,243.55,198.45,241.61Zm57.74,27c-.54,3.46-1.28,5.65-1.14,7.78.81,12.23,2.32,24.44,2.66,36.68.45,16.79,9.07,28.11,22.48,36.75,5.31,3.41,6.68,2.69,7.86-3.74,2.09-11.28.85-22.42-1.06-33.54-2.71-15.8-9.79-29-23.1-38.42C261.68,272.52,259.48,270.94,256.19,268.58Zm250.47,377,.12,1.9a87.35,87.35,0,0,0,29,14.16c15.18,4.19,29.8,3.79,43-6.16,3.62-2.73,6.56-6.67,5-11a13.73,13.73,0,0,0-7.45-7.55c-6.15-2.1-13-4.18-19.24-3.59-11.23,1.06-22.33,3.85-33.36,6.44C517.9,641.11,512.34,643.59,506.66,645.57ZM260,645.23a54,54,0,0,0-6.18-2.33c-13.68-3-27.4-5.86-41.06-9-10-2.28-19.37-.69-28.25,4-6.12,3.23-7.25,7.67-3.79,13.63,3.14,5.41,8,8.59,13.92,10.52,11.07,3.62,22,1.79,32.71-1.15A102,102,0,0,0,260,645.23ZM506.56,282c-1.81.49-2.54.52-3.05.87a30.61,30.61,0,0,0-3.94,3c-15.25,14.57-23.8,32.5-26.54,53.3-.57,4.29,4.73,12.71,8.75,14a3.28,3.28,0,0,0,2.61-.33c9.84-7.58,19.46-15.56,21.72-28.65a201.43,201.43,0,0,0,2.68-27.18C509,292.18,507.39,287.2,506.56,282ZM235.38,237.12l1.65-.29c.33-2,.81-4.08,1-6.13.68-9.38,7.09-17.6,16.29-19.4,5.08-1,10.46-.44,15.7-.68a6.43,6.43,0,0,0,3.45-.89c.38-.3,0-2.19-.55-3-3.46-5-6.5-10.53-10.81-14.72-4-3.91-9-7.86-14.28-9.2-11.16-2.86-23.5-1.2-25.56,15.77a40.12,40.12,0,0,0,.87,13.27A63.91,63.91,0,0,0,235.38,237.12ZM461.89,404.46l-1.8,0a257.31,257.31,0,0,1-44.15,54.21c9.21.83,16.73,1.54,24.27,2.13a3.26,3.26,0,0,0,2.14-1c4.69-4.65,9.51-9.2,13.93-14.12s5.58-10.66,5.22-17.15c-.32-5.63.25-11.3.38-16.95C461.94,409.16,461.89,406.81,461.89,404.46Zm-157.84-1.33-1.89.43c-.52,8.58-2.06,17.25-1.34,25.73,1.06,12.39,8.87,21.34,19.21,27.41,7.74,4.55,16.43,5,26.26.81C328.49,441.44,314,424,304.05,403.13ZM113.36,537c-4.4,8.28-2.62,19,3.76,26.76,9.38,11.34,21.86,16.07,36,17.3,4.46.39,8.92.67,13.38,1l.33-1.49C149.14,566.08,131.4,551.64,113.36,537ZM252,253.37c1.43-1.93,2.44-2.76,2.76-3.8,2.87-9.6,6-19.15,8.21-28.91.9-4.07-5.66-7.4-10-5.13-6.67,3.47-12.14,8.52-13,16.42a18.43,18.43,0,0,0,2.29,10.56C244.52,246.27,248.18,249.19,252,253.37ZM381,515.76l.05-1.89a22.92,22.92,0,0,0-3.85-1.83c-7.8-2.06-8-2-8.12-10-.05-4.79-3.83-5.25-6.75-6.76-.25-.13-1.93,1.34-1.89,2,.35,5.94.83,11.88,1.58,17.77.14,1.08,1.79,2.87,2.62,2.8C370.13,517.38,375.57,516.5,381,515.76Zm-3.18,191,1.26-.09a6.85,6.85,0,0,0,.84-2.18c.07-7.62.17-15.23-.09-22.83,0-1.06-2.3-3.08-2.94-2.87-1.55.51-3.86,2-3.91,3.23C372.64,690.69,375.05,698.81,377.84,706.81Zm14.7-181.73c-8.89-4.19-29-2.56-31.94,1.8,3.52,3.9,7.55,3.63,12.17,2,4-1.38,8.3-1.95,12.49-2.8C387.16,525.75,389.09,525.57,392.54,525.08Zm-10.2,80c-4.78,0-8.49-.09-12.2.09-.56,0-1.51,1.27-1.48,1.92a3.62,3.62,0,0,0,1.29,2.72C373.2,611.5,379.47,609.5,382.34,605.05ZM365,535.78c3.29,4,12.58,3.59,17.42,0Zm16.8,81.4c-.09-.64-.19-1.29-.28-1.93-6-2.51-11-1.78-12.54,2.74Zm-15.57-39.45c4.57,3,12.32,3,16,0Zm1.06-6.39c4.44,3.94,11,3.28,13.3-.86Zm.17,20.39,0,1.53h12.3c0-.51,0-1,0-1.53Zm12.19,7.62c-3.21-3.42-9.28-3.18-12.73,0Zm.15-34.12c0-.49,0-1,0-1.46H367.36c0,.49,0,1,0,1.46Zm-10.55,58.46c0,.5.09,1,.13,1.52h12.2l0-1.52Zm1.87,45c0,.63,0,1.26.05,1.88,3.63,3.33,6.95-.15,10.42-.27l0-1.61Zm-.78-38-.05,1.52h11.33v-1.52ZM368.47,585v1.58h11.34l0-1.58Zm10.28-35.73-.05-1.85c-3.74-.18-7.52-1.5-11.16,1.85Zm-8.39,90.6v1.34h10.88v-1.34Zm9.84,5.49.24-1.55H370.36v1.55Zm-9.27,7.13c4,3.39,7,3.15,9.67,0Zm9.6,7.83c0-.51,0-1,0-1.52h-9.13c0,.5,0,1,0,1.52Z" transform="translate(-1 -1)"/>
        <path class="cls-1" d="M493.67,578.76l-30.86,22.59-2-.9c.55-5.24.72-10.57,1.81-15.7a36.57,36.57,0,0,1,4.32-10.51c4-6.84,3.67-13.49.06-20.23a102.15,102.15,0,0,0-23.06-28.46c-9.8-8.62-20.34-16.39-30.34-24.81a10.78,10.78,0,0,1-3.43-6.51c-.48-4.78,0-9.65,0-14.48,0-2.58.83-4.06,3.79-3.83,17.48,1.39,35,2.78,51.48,9.32,5.07,2,9.41,6,13.83,9.45,2.33,1.8,4.11,4.32,6,6.43,15.61-10.15,17-31.18,3.3-45-9.79,5.71-27.38,7.79-34,4.32,2.43-5.2,4.66-10.47,7.34-15.49.93-1.75,2.76-3.76,4.53-4.19,8.12-2,10.77-8.4,13.55-14.83l-1-1c-1.59,1.64-3,3.6-4.81,4.85-2.2,1.48-5,3.53-7.2,3.2-3.18-.48-3.48-4.11-3-7a157.65,157.65,0,0,1,3.08-16.47c1.4-5.28,5.25-7.78,10.85-7.56a58.32,58.32,0,0,0,11.48-.58c-3.91-.45-7.82-.88-11.73-1.35-3.71-.44-7.42-.92-11.94-1.48C471.5,384.61,477,371.48,483,357l5.6,8.43L500,363.29c-6.17-.47-11.7-1.46-13-9.76,5.24-2.75,10.81-5.93,16.63-8.52,1.1-.48,4.13,1,4.74,2.24,3.24,6.88,5.89,14,9,21,.75,1.68,2.5,2.89,3.77,4.34a37.5,37.5,0,0,0,5.94,5.88c-3.07-8.22-6.57-16.31-9.11-24.69-3.2-10.57.82-14.26,11.66-13.14a45.85,45.85,0,0,1,41,39.05c1.25,8.21,1.58,16.37-2.39,24.31-8.66,17.25-37.69,16.64-45.3,3.61-1.19-2.05-2.91-3.79-5.28-6.82,2.58,8.25,4,15.23,11.4,19.18,2.37,1.26,3.34,5.16,4.35,6.85,1.68-.32,3.32-1.19,4.18-.7,12.32,7,21.08,16.72,24,31.08,1.79,8.58-1.09,12.63-9.87,12.85a21.49,21.49,0,0,1-3,.05c-12.24-1.28-19,5.61-23.75,15.88,6.87.05,9.61,5.54,14.16,9.8-8.6,3.35-20.28.8-22.26,13.93,4.06-.7,7.39-1.35,10.74-1.82a8.66,8.66,0,0,1,3.47.23c4.11,1.19,6.72,8.17,6,15.69-.44,4.43-4,8.28-8.51,8.15a225.4,225.4,0,0,1-22.8-1.59c-6.94-.91-8.63-.54-11.1,5.9-4,10.45-6.38,21.29-5.37,32.51C489.51,571.86,491.84,574.79,493.67,578.76Z" transform="translate(-1 -1)"/>
        <path class="cls-1" d="M257.57,364.34c8.47-2.87,11.17,5.19,16.91,9.2,1.33-8.8,6.26-14.12,15.29-16.39.74,2.59,1.55,5.33,2.32,8.09,2.41,8.57,4.63,17.2,7.3,25.68,1.16,3.67-.2,6-3,7.45-4.23,2.15-8.76,3.7-13.6,5.67,1.79.94,3.57,1.93,5.4,2.82a18.2,18.2,0,0,1,10.43,15.38c.25,2.92-2.57,6.56-4.85,9.12-2.73,3.06-6.45,1.69-9.68.16-2.18-1-4.22-2.37-6.45-3.65-1.52,4.31-.21,6.61,3.66,7.53,1.77.43,3.57,1.43,5.28,1.27,7.1-.64,10.46,3.13,12.74,9.28,2.45,6.64,7.27,11.26,15.54,13-1.83,1.19-2.47,2-3.06,1.94-10.24-.55-20.49-1.08-30.72-1.92a9.43,9.43,0,0,1-5.13-2.62c-3.15-2.95-5.4-2.81-7.12,1.27-2.16,5.16-4.81,10.18-6.34,15.51-2.76,9.6,2.86,22.7,11.92,28.74,9-16.79,25.12-20.23,42-21.89,10.9-1.06,21.88-1.3,32.81-2,3.74-.26,5.26,1.24,4.85,4.91a7.27,7.27,0,0,0,.06,3c3,9.25-2,13.64-9.08,18.8-16.49,12-31.84,25.48-43.83,42.4-6.83,9.63-8.95,19.13-3.57,30.07,3.4,6.93,4.33,14.41,2.74,23.36l-33.81-25.13c1.6-.65,2.49-1.36,3.3-1.28,5.24.51,7.09-2.11,6.08-6.83q-3.33-15.47-7.08-30.82c-.89-3.62-3.15-5.21-7.4-4.54A190.7,190.7,0,0,1,239.71,534c-8.78.38-13.15-5.3-11.36-14.08,2-9.87,6.38-12.67,16.9-10.8,1.27.23,2.52.55,3.83.84.13-7.64-1.53-11.11-7.61-12.78-4.92-1.35-10.2-1.37-15.38-2,2.64-6.88,12-11.66,16.22-8.47C239.7,479,231.38,470.08,222,469.51c-1.13-.07-2.28-.08-3.41-.18-12.07-1.09-12.05-4.8-7.87-14.25,3.09-7,8.69-12.82,12.95-19.31,6.71-10.23,18.44-13.36,27.73-19.93.27-.19.54-.38.83-.55,9.06-5.17,10.57-7.32,8.14-17.9-2.92,3.51-5.54,7.54-9,10.63-10.13,9.06-22.07,8.69-34.11,5.12-10.12-3-17.48-9.86-18.93-20.32-2.15-15.47,3.81-36.91,23.72-45.83,7.67-3.43,15.56-5.59,24.08-5.06,3,.18,4.57,1.34,3.66,4.29-1.94,6.29-3.35,12.83-9.26,17.13-1.18.85-1.3,3.51-1.43,5.36-.22,3.21-.06,6.43-.06,8.61l18.69-13.13Z" transform="translate(-1 -1)"/>
        <path class="cls-1" d="M342,425.18c10.63,14.41,26.78,22.29,41.12,34.05,14.14-6,25.94-17.37,36.8-30L411.48,436c-.77-1-1.34-1.38-1.33-1.76.2-8.44-.83-17.19,1.12-25.21,1.68-6.9,6.51-13.13,10.42-19.36,7.32-11.64,14.68-23.31,25.39-32.29,2.78-2.34,5.71-4.5,8.37-7.7l-9.33,1,20.22-23.24C467.06,332,467.89,335,468,338c.52,22-7.18,41.21-19.87,58.75-7.88,10.88-14.88,22.55-23.78,32.51a311,311,0,0,1-33.84,32.28c-8.43,7-19.66,9-30.41,9.24-13.73.29-27.51-.93-41.24-1.82-1.63-.1-3.13-2.19-4.69-3.36,2.09-.82,4.44-2.7,6.24-2.28,16,3.75,31.92,3.4,47.92.64a31.38,31.38,0,0,0,10.19-3.77c-1.36,0-2.73-.11-4.08,0-6.24.58-10.29-2.11-14.21-7.11-8.27-10.57-17.44-20.45-26.26-30.6-20.52-23.62-33.1-50.23-31.18-82.37.25-4,0-8.11,0-12.17l2.24-.77c3.5,4.6,7,9.18,10.45,13.85.33.44,0,1.52-.23,2.19-2.09,5.35-1.58,8.78,3.27,11.39,13.24,7.12,19.17,19.78,25.5,32.24,1.28,2.49,2.63,5,3.76,7.52a25.24,25.24,0,0,1,1,4.35c7.23.82,7.19.82,7.24,9.11,0,6.67.23,13.33.22,20a73.27,73.27,0,0,1-.87,7.39Z" transform="translate(-1 -1)"/>
        <path class="cls-1" d="M300.63,601.35c3.86-4.72,6.85-9.66,11.05-13.14s9.38-5.25,14.79-8.13c-1.65-.86-2.7-1.81-3.83-1.93-6.74-.69-11-5-14.84-9.93-4.2-5.36-3.48-11.33.49-16,8-9.42,16.6-18.46,25.48-27.11,5.29-5.16,11.58-9.31,17.46-13.87a45,45,0,0,1,4-2.52c1.4,4.72,3.08,8.47-.66,12.83-1.28,1.5.24,5.55.75,8.38.18,1,1.61,1.82,1.72,2.81.71,6.07,1.16,12.17,1.78,18.25.6,5.91,1.63,11.79,1.89,17.72.27,6.22-.16,12.47-.29,18.71,0,.16-.16.31-.15.47.16,5.09.29,10.18.53,15.27.36,7.53.79,15.06,1.19,22.58.22,4.11-1.94,5.17-5.32,3.7-11.36-4.94-22.78-9.76-33.89-15.22C315.43,610.63,308.55,606,300.63,601.35Z" transform="translate(-1 -1)"/>
        <path class="cls-1" d="M404.18,632.78c-.34-4.69-.81-8-.76-11.23.11-7,.61-14,.73-21,.11-6.74-.17-13.49-.06-20.23.05-3.44.78-6.87.84-10.31.13-7,0-14,0-21.06a4.43,4.43,0,0,1,.34-2.4c3.35-4.52,1.69-8.73-1.17-13.94.71-.41,1.68-1,2.7-1.55,4.41-2.22,3.92-5.83,2.26-9.29-1.94-4.06-1.42-7.78.08-12.4,6.22,4.94,12.19,9.08,17.43,14,9.2,8.61,18.33,17.36,26.73,26.74,4.29,4.79,8,10.79,4.14,18-3.65,6.88-9.61,9.67-17.08,9.91-.65,0-1.3.17-2.74,1.44,1.69,1.23,3.22,2.87,5.11,3.62,6.35,2.54,11.66,6.23,15.07,12.29,3.23,5.75,3.16,7-2.45,10.48-9.55,5.91-19.21,11.7-29.1,17C419.61,626.44,412.49,629.1,404.18,632.78Z" transform="translate(-1 -1)"/>
        <path class="cls-1" d="M101,401.06c-7-6.22-13.75-11.74-19.94-17.87-12.4-12.29-19-27.67-21.78-44.65-2.85-17.53.45-34.45,8.19-50.13,4.39-8.91,10.66-17,16.74-25,3.7-4.83,13.71-5.55,18.51-2,1.11.83,1.6,3.13,1.56,4.74-.3,14.3-1.27,28.61-1.06,42.9.19,12.4,1.93,24.77,2.33,37.18.09,2.53-2.19,5.85-4.36,7.57-4.5,3.57-9.66,6.31-14.53,9.41-.66.42-1.26.94-2,1.49C93.26,368.42,105.06,393,101,401.06Z" transform="translate(-1 -1)"/>
        <path class="cls-1" d="M657.22,399.87c5.55-12.81,9.27-26.67,21.69-35.93-3.47-1.87-6.73-3.57-9.93-5.37-7.65-4.29-11.27-10.89-11-19.61.15-4.82.76-9.64.65-14.45-.42-18.94-.94-37.88-1.66-56.82-.22-5.64.8-6.26,6.21-7.88,9.38-2.8,14.41,2.23,18.74,8.91,11.45,17.67,18.73,37.18,19.59,58.06.74,17.54-5.34,34.22-16.27,48.11-7.1,9-16.16,16.54-24.39,24.68a9.41,9.41,0,0,1-2.45,1.31Z" transform="translate(-1 -1)"/>
        <path class="cls-1" d="M229.35,252.92c4.7,2.1,8.69,3.67,12.43,5.69,1.07.58,1.81,2.4,2.07,3.76,3.43,17.84,6.85,35.67,10,53.54,1.75,9.8-1.55,14.2-11.37,15.22-6.42.66-12.91.83-19.38,1-3.27.08-6-.74-5.18-5.2.19-1-.93-2.19-1.45-3.3-1.1.58-2.6.88-3.24,1.79-8.61,12.3-21.14,14.57-34.83,13.56-6.32-.47-11.17-3.9-14.6-9.17-4.76-7.33-5.84-15.57-4.63-23.92,1.32-9.18,9.71-13.13,18.94-9.24,3.32,1.4,6.34,3.52,9.49,5.31,11.37,6.47,21.36,4.2,29-6.51s12.43-22.2,13-35.34A70.52,70.52,0,0,0,229.35,252.92Z" transform="translate(-1 -1)"/>
        <path class="cls-1" d="M552.85,308.23c3.72,11.12-4.42,15.18-11.17,19.86-6.59,4.57-13.82,5.67-21.1,1.73a23.25,23.25,0,0,1-7.12-6c-2-2.64-3.17-6.12-.54-9.16,5.65-6.52,6.85-14.61,7.91-22.61.88-6.65.84-13.42,1.24-20.61-2.71.78-4.13,1.19-5.54,1.61-.32-.42-.64-.84-1-1.25a88.25,88.25,0,0,1,19-18.22c.19,3.3.4,5.53.43,7.76.14,11.87,3,22.81,10,32.65,8.38,11.82,24.66,15.32,36.85,7.63a64.47,64.47,0,0,1,6.85-4c8.3-3.93,16.37-.44,17.8,8.54a53.66,53.66,0,0,1-.43,18.27c-1.57,8.11-7,13.79-15.47,14.65a60.42,60.42,0,0,1-18.61-.66c-9.28-2-13.86-10.79-12.49-21.36C560.41,310.17,559.22,308.35,552.85,308.23Z" transform="translate(-1 -1)"/>
        <path class="cls-1" d="M362.42,649.06c1,4.93,3.74,10.13,2.23,13.3-2.36,4.94,0,9.16-.76,13.3-1.72,10,1.79,18.85,4.05,28,1.48,6,1.59,5.87-4.63,5.5-12.6-.75-23.33-6.15-32.83-13.88-12-9.78-22-21.48-30.83-35.13,2-.85,3.49-2,5.05-2.09A239.49,239.49,0,0,0,362.42,649.06Z" transform="translate(-1 -1)"/>
        <path class="cls-1" d="M402.77,710.22c-6-1-6.09-1.25-4.74-6.59,1.89-7.49,3.74-15,5.12-22.6.75-4.18-1.54-8.72,1.65-12.77.53-.67-.94-2.67-1-4.09-.27-4.87-.43-9.76-.32-14.63,0-.38,2.56-1.31,3.63-1,16.47,5,33.24,7.84,50.48,7.56,3.9-.06,3.79,2,2.22,4.36-4.53,6.71-8.88,13.61-14,19.85-7.26,8.84-14.67,17.83-25.15,23.1C415,706.28,408.74,708,402.77,710.22Z" transform="translate(-1 -1)"/>
        <path class="cls-1" d="M585.27,265.9c-1.83,7.65-2.89,15.6-5.68,22.89-4.22,11-14.38,14.14-24.8,8.58-13.58-7.24-21.64-30.38-12-43.49,8.89-12.06,23.25-15.72,34.26-7.91C583.92,250.82,584.14,258.21,585.27,265.9Z" transform="translate(-1 -1)"/>
        <path class="cls-1" d="M198.45,241.61c5.51,1.94,11.44,3.16,16.37,6.07a19.3,19.3,0,0,1,7.75,9.71c4,11.74-3.67,31.1-14.25,37.85-10.27,6.55-21.24,3.55-26.56-7.33a49.88,49.88,0,0,1-4.64-27.54c1.3-12.23,8-17.6,20.89-17.52Z" transform="translate(-1 -1)"/>
        <path class="cls-1" d="M256.19,268.58c3.29,2.36,5.49,3.94,7.7,5.51,13.31,9.43,20.39,22.62,23.1,38.42,1.91,11.12,3.15,22.26,1.06,33.54-1.18,6.43-2.55,7.15-7.86,3.74-13.41-8.64-22-20-22.48-36.75-.34-12.24-1.85-24.45-2.66-36.68C254.91,274.23,255.65,272,256.19,268.58Z" transform="translate(-1 -1)"/>
        <path class="cls-1" d="M506.66,645.57c5.68-2,11.24-4.46,17.06-5.83,11-2.59,22.13-5.38,33.36-6.44,6.28-.59,13.09,1.49,19.24,3.59a13.73,13.73,0,0,1,7.45,7.55c1.56,4.36-1.38,8.3-5,11-13.16,9.95-27.78,10.35-43,6.16a87.35,87.35,0,0,1-29-14.16Z" transform="translate(-1 -1)"/>
        <path class="cls-1" d="M260,645.23a102,102,0,0,1-32.65,15.69c-10.73,2.94-21.64,4.77-32.71,1.15-5.89-1.93-10.78-5.11-13.92-10.52-3.46-6-2.33-10.4,3.79-13.63,8.88-4.69,18.26-6.28,28.25-4,13.66,3.12,27.38,6,41.06,9A54,54,0,0,1,260,645.23Z" transform="translate(-1 -1)"/>
        <path class="cls-1" d="M506.56,282c.83,5.17,2.4,10.15,2.23,15.06a201.43,201.43,0,0,1-2.68,27.18c-2.26,13.09-11.88,21.07-21.72,28.65a3.28,3.28,0,0,1-2.61.33c-4-1.3-9.32-9.72-8.75-14,2.74-20.8,11.29-38.73,26.54-53.3a30.61,30.61,0,0,1,3.94-3C504,282.55,504.75,282.52,506.56,282Z" transform="translate(-1 -1)"/>
        <path class="cls-1" d="M235.38,237.12a63.91,63.91,0,0,1-12.28-25.27,40.12,40.12,0,0,1-.87-13.27c2.06-17,14.4-18.63,25.56-15.77,5.24,1.34,10.27,5.29,14.28,9.2,4.31,4.19,7.35,9.7,10.81,14.72.56.81.93,2.7.55,3a6.43,6.43,0,0,1-3.45.89c-5.24.24-10.62-.31-15.7.68-9.2,1.8-15.61,10-16.29,19.4-.15,2.05-.63,4.09-1,6.13Z" transform="translate(-1 -1)"/>
        <path class="cls-1" d="M461.89,404.46c0,2.35.05,4.7,0,7-.13,5.65-.7,11.32-.38,16.95.36,6.49-.9,12.34-5.22,17.15s-9.24,9.47-13.93,14.12a3.26,3.26,0,0,1-2.14,1c-7.54-.59-15.06-1.3-24.27-2.13a257.31,257.31,0,0,0,44.15-54.21Z" transform="translate(-1 -1)"/>
        <path class="cls-1" d="M304.05,403.13c10,20.88,24.44,38.31,42.24,54.38-9.83,4.21-18.52,3.74-26.26-.81-10.34-6.07-18.15-15-19.21-27.41-.72-8.48.82-17.15,1.34-25.73Z" transform="translate(-1 -1)"/>
        <path class="cls-1" d="M113.36,537c18,14.69,35.78,29.13,53.51,43.58l-.33,1.49c-4.46-.34-8.92-.62-13.38-1-14.18-1.23-26.66-6-36-17.3C110.74,556,109,545.23,113.36,537Z" transform="translate(-1 -1)"/>
        <path class="cls-1" d="M252,253.37c-3.86-4.18-7.52-7.1-9.73-10.86A18.43,18.43,0,0,1,240,232c.82-7.9,6.29-12.95,13-16.42,4.37-2.27,10.93,1.06,10,5.13-2.17,9.76-5.34,19.31-8.21,28.91C254.48,250.61,253.47,251.44,252,253.37Z" transform="translate(-1 -1)"/>
        <path class="cls-1" d="M257.72,364.19c-3.06,1.07-6.18,2-9.17,3.24-2.53,1.06-4,.09-3.21-2.22,2.38-7.11,5.23-14.07,8-21.39,7.88,4.26,17.81,3.76,24.37,13.12L263.85,362c-2.09.76-4.17,1.54-6.27,2.32Z" transform="translate(-1 -1)"/>
        <path class="cls-1" d="M381,515.76c-5.45.74-10.89,1.62-16.36,2.08-.83.07-2.48-1.72-2.62-2.8-.75-5.89-1.23-11.83-1.58-17.77,0-.67,1.64-2.14,1.89-2,2.92,1.51,6.7,2,6.75,6.76.09,8,.32,8,8.12,10a22.92,22.92,0,0,1,3.85,1.83Z" transform="translate(-1 -1)"/>
        <path class="cls-1" d="M377.84,706.81c-2.79-8-5.2-16.12-4.84-24.74.05-1.2,2.36-2.72,3.91-3.23.64-.21,2.91,1.81,2.94,2.87.26,7.6.16,15.21.09,22.83a6.85,6.85,0,0,1-.84,2.18Z" transform="translate(-1 -1)"/>
        <path class="cls-1" d="M392.54,525.08c-3.45.49-5.38.67-7.28,1-4.19.85-8.48,1.42-12.49,2.8-4.62,1.58-8.65,1.85-12.17-2C363.5,522.52,383.65,520.89,392.54,525.08Z" transform="translate(-1 -1)"/>
        <path class="cls-1" d="M382.34,605.05c-2.87,4.45-9.14,6.45-12.39,4.73a3.62,3.62,0,0,1-1.29-2.72c0-.65.92-1.9,1.48-1.92C373.85,605,377.56,605.05,382.34,605.05Z" transform="translate(-1 -1)"/>
        <path class="cls-1" d="M365,535.78h17.42C377.6,539.37,368.31,539.74,365,535.78Z" transform="translate(-1 -1)"/>
        <path class="cls-1" d="M381.82,617.18,369,618c1.52-4.52,6.58-5.25,12.54-2.74C381.63,615.89,381.73,616.54,381.82,617.18Z" transform="translate(-1 -1)"/>
        <path class="cls-1" d="M366.25,577.73h16C378.57,580.69,370.82,580.77,366.25,577.73Z" transform="translate(-1 -1)"/>
        <path class="cls-1" d="M367.31,571.34l13.3-.86C378.32,574.62,371.75,575.28,367.31,571.34Z" transform="translate(-1 -1)"/>
        <path class="cls-1" d="M367.48,591.73h12.34c0,.51,0,1,0,1.53h-12.3Z" transform="translate(-1 -1)"/>
        <path class="cls-1" d="M379.67,599.35H366.94C370.39,596.17,376.46,595.93,379.67,599.35Z" transform="translate(-1 -1)"/>
        <path class="cls-1" d="M379.82,565.23H367.35c0-.49,0-1,0-1.46h12.48C379.83,564.26,379.83,564.74,379.82,565.23Z" transform="translate(-1 -1)"/>
        <path class="cls-1" d="M369.27,623.69h12.31l0,1.52H369.4C369.36,624.7,369.31,624.19,369.27,623.69Z" transform="translate(-1 -1)"/>
        <path class="cls-1" d="M371.14,668.68h10.44l0,1.61c-3.47.12-6.79,3.6-10.42.27C371.17,669.94,371.16,669.31,371.14,668.68Z" transform="translate(-1 -1)"/>
        <path class="cls-1" d="M370.36,630.66h11.28v1.52H370.31Z" transform="translate(-1 -1)"/>
        <path class="cls-1" d="M368.47,585h11.39l0,1.58H368.48Z" transform="translate(-1 -1)"/>
        <path class="cls-1" d="M378.75,549.23H367.54c3.64-3.35,7.42-2,11.16-1.85Z" transform="translate(-1 -1)"/>
        <path class="cls-1" d="M370.36,639.83h10.88v1.34H370.37Z" transform="translate(-1 -1)"/>
        <path class="cls-1" d="M380.2,645.32h-9.84v-1.55h10.08Z" transform="translate(-1 -1)"/>
        <path class="cls-1" d="M370.93,652.45h9.67C377.94,655.6,374.94,655.84,370.93,652.45Z" transform="translate(-1 -1)"/>
        <path class="cls-1" d="M380.53,660.28h-9.17c0-.51,0-1,0-1.52h9.13C380.49,659.26,380.51,659.77,380.53,660.28Z" transform="translate(-1 -1)"/>
      </g>
    </g>
  </g>
</svg>
